<?xml version="1.0" encoding="UTF-8"?>
<svg xmlns="http://www.w3.org/2000/svg" xmlns:xlink="http://www.w3.org/1999/xlink" width="31px" height="30px" viewBox="0 0 31 30" version="1.1">
<defs>
<linearGradient id="linear0" gradientUnits="userSpaceOnUse" x1="0.0731744" y1="104.784" x2="12.7104" y2="104.784" gradientTransform="matrix(0.262712,0,0,0.263158,0,0)">
<stop offset="0" style="stop-color:rgb(27.058824%,69.019608%,28.627451%);stop-opacity:1;"/>
<stop offset="0.99" style="stop-color:rgb(16.862745%,58.431373%,27.45098%);stop-opacity:1;"/>
</linearGradient>
<linearGradient id="linear1" gradientUnits="userSpaceOnUse" x1="14.9935" y1="104.485" x2="26.4629" y2="104.485" gradientTransform="matrix(0.262712,0,0,0.263158,0,0)">
<stop offset="0" style="stop-color:rgb(27.058824%,69.019608%,28.627451%);stop-opacity:1;"/>
<stop offset="0.99" style="stop-color:rgb(16.862745%,58.431373%,27.45098%);stop-opacity:1;"/>
</linearGradient>
<linearGradient id="linear2" gradientUnits="userSpaceOnUse" x1="27.2664" y1="107.154" x2="39.4368" y2="107.154" gradientTransform="matrix(0.262712,0,0,0.263158,0,0)">
<stop offset="0" style="stop-color:rgb(27.058824%,69.019608%,28.627451%);stop-opacity:1;"/>
<stop offset="0.99" style="stop-color:rgb(16.862745%,58.431373%,27.45098%);stop-opacity:1;"/>
</linearGradient>
<linearGradient id="linear3" gradientUnits="userSpaceOnUse" x1="41.3305" y1="107.154" x2="53.5009" y2="107.154" gradientTransform="matrix(0.262712,0,0,0.263158,0,0)">
<stop offset="0" style="stop-color:rgb(27.058824%,69.019608%,28.627451%);stop-opacity:1;"/>
<stop offset="0.99" style="stop-color:rgb(16.862745%,58.431373%,27.45098%);stop-opacity:1;"/>
</linearGradient>
<linearGradient id="linear4" gradientUnits="userSpaceOnUse" x1="55.9655" y1="104.485" x2="59.4164" y2="104.485" gradientTransform="matrix(0.262712,0,0,0.263158,0,0)">
<stop offset="0" style="stop-color:rgb(27.058824%,69.019608%,28.627451%);stop-opacity:1;"/>
<stop offset="0.99" style="stop-color:rgb(16.862745%,58.431373%,27.45098%);stop-opacity:1;"/>
</linearGradient>
<linearGradient id="linear5" gradientUnits="userSpaceOnUse" x1="61.6994" y1="107.154" x2="74.0776" y2="107.154" gradientTransform="matrix(0.262712,0,0,0.263158,0,0)">
<stop offset="0" style="stop-color:rgb(27.058824%,69.019608%,28.627451%);stop-opacity:1;"/>
<stop offset="0.99" style="stop-color:rgb(16.862745%,58.431373%,27.45098%);stop-opacity:1;"/>
</linearGradient>
<linearGradient id="linear6" gradientUnits="userSpaceOnUse" x1="75.8675" y1="111.761" x2="79.4735" y2="111.761" gradientTransform="matrix(0.262712,0,0,0.263158,0,0)">
<stop offset="0" style="stop-color:rgb(27.058824%,69.019608%,28.627451%);stop-opacity:1;"/>
<stop offset="0.99" style="stop-color:rgb(16.862745%,58.431373%,27.45098%);stop-opacity:1;"/>
</linearGradient>
<linearGradient id="linear7" gradientUnits="userSpaceOnUse" x1="82.2249" y1="107.01" x2="93.8758" y2="107.01" gradientTransform="matrix(0.262712,0,0,0.263158,0,0)">
<stop offset="0" style="stop-color:rgb(27.058824%,69.019608%,28.627451%);stop-opacity:1;"/>
<stop offset="0.99" style="stop-color:rgb(16.862745%,58.431373%,27.45098%);stop-opacity:1;"/>
</linearGradient>
<linearGradient id="linear8" gradientUnits="userSpaceOnUse" x1="96.0813" y1="107.154" x2="107.861" y2="107.154" gradientTransform="matrix(0.262712,0,0,0.263158,0,0)">
<stop offset="0" style="stop-color:rgb(27.058824%,69.019608%,28.627451%);stop-opacity:1;"/>
<stop offset="0.99" style="stop-color:rgb(16.862745%,58.431373%,27.45098%);stop-opacity:1;"/>
</linearGradient>
<linearGradient id="linear9" gradientUnits="userSpaceOnUse" x1="109.184" y1="105.579" x2="117.592" y2="105.579" gradientTransform="matrix(0.262712,0,0,0.263158,0,0)">
<stop offset="0" style="stop-color:rgb(27.058824%,69.019608%,28.627451%);stop-opacity:1;"/>
<stop offset="0.99" style="stop-color:rgb(16.862745%,58.431373%,27.45098%);stop-opacity:1;"/>
</linearGradient>
<linearGradient id="linear10" gradientUnits="userSpaceOnUse" x1="43.0472" y1="64.3717" x2="117.519" y2="64.3717" gradientTransform="matrix(0.262712,0,0,0.263158,0,0)">
<stop offset="0" style="stop-color:rgb(27.058824%,69.019608%,28.627451%);stop-opacity:1;"/>
<stop offset="0.99" style="stop-color:rgb(16.862745%,58.431373%,27.45098%);stop-opacity:1;"/>
</linearGradient>
<linearGradient id="linear11" gradientUnits="userSpaceOnUse" x1="42.1486" y1="50.5695" x2="93.7368" y2="50.5695" gradientTransform="matrix(0.262712,0,0,0.263158,0,0)">
<stop offset="0" style="stop-color:rgb(27.058824%,69.019608%,28.627451%);stop-opacity:1;"/>
<stop offset="0.99" style="stop-color:rgb(16.862745%,58.431373%,27.45098%);stop-opacity:1;"/>
</linearGradient>
<linearGradient id="linear12" gradientUnits="userSpaceOnUse" x1="52.8336" y1="33.9865" x2="80.4921" y2="33.9865" gradientTransform="matrix(0.262712,0,0,0.263158,0,0)">
<stop offset="0" style="stop-color:rgb(27.058824%,69.019608%,28.627451%);stop-opacity:1;"/>
<stop offset="0.99" style="stop-color:rgb(16.862745%,58.431373%,27.45098%);stop-opacity:1;"/>
</linearGradient>
<linearGradient id="linear13" gradientUnits="userSpaceOnUse" x1="50.6383" y1="46.3191" x2="78.2969" y2="46.3191" gradientTransform="matrix(0.262712,0,0,0.263158,0,0)">
<stop offset="0" style="stop-color:rgb(27.058824%,69.019608%,28.627451%);stop-opacity:1;"/>
<stop offset="0.99" style="stop-color:rgb(16.862745%,58.431373%,27.45098%);stop-opacity:1;"/>
</linearGradient>
<linearGradient id="linear14" gradientUnits="userSpaceOnUse" x1="48.2968" y1="58.7985" x2="75.9553" y2="58.7985" gradientTransform="matrix(0.262712,0,0,0.263158,0,0)">
<stop offset="0" style="stop-color:rgb(27.058824%,69.019608%,28.627451%);stop-opacity:1;"/>
<stop offset="0.99" style="stop-color:rgb(16.862745%,58.431373%,27.45098%);stop-opacity:1;"/>
</linearGradient>
<linearGradient id="linear15" gradientUnits="userSpaceOnUse" x1="0" y1="42.9438" x2="70.2477" y2="42.9438" gradientTransform="matrix(0.262712,0,0,0.263158,0,0)">
<stop offset="0" style="stop-color:rgb(24.705882%,51.764706%,77.254902%);stop-opacity:1;"/>
<stop offset="0.99" style="stop-color:rgb(20.784314%,36.470588%,66.666667%);stop-opacity:1;"/>
</linearGradient>
<linearGradient id="linear16" gradientUnits="userSpaceOnUse" x1="22.2451" y1="8.88239" x2="39.9534" y2="8.88239" gradientTransform="matrix(0.262712,0,0,0.263158,0,0)">
<stop offset="0" style="stop-color:rgb(24.705882%,51.764706%,77.254902%);stop-opacity:1;"/>
<stop offset="0.99" style="stop-color:rgb(20.784314%,36.470588%,66.666667%);stop-opacity:1;"/>
</linearGradient>
</defs>
<g id="surface1">
<path style=" stroke:none;fill-rule:nonzero;fill:url(#linear0);" d="M 1.710938 29.992188 C 1.539062 29.992188 1.347656 29.984375 1.140625 29.964844 C 0.941406 29.945312 0.738281 29.914062 0.550781 29.882812 C 0.355469 29.855469 0.191406 29.832031 0.0507812 29.804688 L 0.117188 29.0625 C 0.253906 29.078125 0.417969 29.097656 0.605469 29.117188 C 0.792969 29.140625 0.976562 29.15625 1.164062 29.171875 C 1.34375 29.183594 1.503906 29.191406 1.644531 29.191406 C 1.902344 29.191406 2.089844 29.140625 2.207031 29.039062 C 2.324219 28.933594 2.386719 28.773438 2.386719 28.554688 C 2.390625 28.457031 2.367188 28.355469 2.3125 28.269531 C 2.265625 28.199219 2.179688 28.140625 2.054688 28.101562 C 1.890625 28.042969 1.71875 28.003906 1.546875 27.972656 C 1.183594 27.902344 0.886719 27.816406 0.660156 27.722656 C 0.4375 27.621094 0.273438 27.476562 0.167969 27.292969 C 0.0703125 27.109375 0.015625 26.867188 0.015625 26.5625 C 0.015625 26.207031 0.0859375 25.921875 0.214844 25.71875 C 0.351562 25.515625 0.550781 25.359375 0.777344 25.285156 C 1.0625 25.195312 1.351562 25.152344 1.648438 25.15625 C 1.796875 25.15625 1.96875 25.164062 2.160156 25.179688 C 2.351562 25.195312 2.546875 25.214844 2.734375 25.234375 C 2.921875 25.261719 3.082031 25.285156 3.214844 25.316406 L 3.171875 26.066406 C 3.035156 26.050781 2.878906 26.03125 2.699219 26.015625 C 2.519531 26 2.339844 25.988281 2.167969 25.972656 C 1.992188 25.960938 1.84375 25.949219 1.722656 25.949219 C 1.460938 25.949219 1.273438 25.992188 1.148438 26.078125 C 1.023438 26.15625 0.964844 26.289062 0.964844 26.472656 C 0.964844 26.609375 0.992188 26.714844 1.046875 26.789062 C 1.101562 26.859375 1.195312 26.921875 1.324219 26.964844 C 1.496094 27.027344 1.675781 27.074219 1.855469 27.109375 C 2.089844 27.160156 2.316406 27.222656 2.542969 27.304688 C 2.707031 27.355469 2.863281 27.441406 3.003906 27.546875 C 3.121094 27.644531 3.210938 27.773438 3.257812 27.917969 C 3.316406 28.101562 3.347656 28.292969 3.339844 28.484375 C 3.339844 28.851562 3.273438 29.144531 3.144531 29.367188 C 3.019531 29.582031 2.820312 29.753906 2.585938 29.847656 C 2.339844 29.945312 2.050781 29.992188 1.710938 29.992188 Z M 1.710938 29.992188 "/>
<path style=" stroke:none;fill-rule:nonzero;fill:url(#linear1);" d="M 3.941406 29.917969 L 3.941406 25.074219 L 4.84375 25.074219 L 4.84375 27.773438 L 5.246094 27.761719 L 5.953125 26.480469 L 6.902344 26.480469 L 6.039062 28.097656 L 6.949219 29.917969 L 6 29.917969 L 5.261719 28.554688 L 4.84375 28.574219 L 4.84375 29.917969 Z M 3.941406 29.917969 "/>
<path style=" stroke:none;fill-rule:nonzero;fill:url(#linear2);" d="M 8.757812 29.992188 C 8.371094 29.992188 8.0625 29.925781 7.828125 29.800781 C 7.59375 29.671875 7.410156 29.460938 7.316406 29.207031 C 7.21875 28.941406 7.164062 28.59375 7.164062 28.167969 C 7.164062 27.757812 7.21875 27.425781 7.328125 27.167969 C 7.425781 26.921875 7.609375 26.714844 7.84375 26.59375 C 8.082031 26.46875 8.382812 26.402344 8.753906 26.402344 C 9.132812 26.402344 9.441406 26.46875 9.675781 26.59375 C 9.910156 26.71875 10.089844 26.921875 10.191406 27.167969 C 10.304688 27.425781 10.359375 27.761719 10.359375 28.171875 C 10.359375 28.597656 10.304688 28.941406 10.199219 29.207031 C 10.109375 29.460938 9.929688 29.671875 9.695312 29.800781 C 9.460938 29.925781 9.148438 29.992188 8.757812 29.992188 Z M 8.757812 29.242188 C 8.949219 29.242188 9.09375 29.203125 9.1875 29.136719 C 9.285156 29.0625 9.347656 28.949219 9.378906 28.792969 C 9.421875 28.585938 9.4375 28.378906 9.433594 28.171875 C 9.4375 27.972656 9.417969 27.769531 9.371094 27.570312 C 9.332031 27.425781 9.265625 27.316406 9.167969 27.257812 C 9.070312 27.191406 8.9375 27.160156 8.757812 27.15625 C 8.585938 27.15625 8.453125 27.1875 8.351562 27.253906 C 8.253906 27.316406 8.1875 27.421875 8.144531 27.570312 C 8.097656 27.769531 8.078125 27.96875 8.085938 28.167969 C 8.082031 28.378906 8.097656 28.585938 8.132812 28.789062 C 8.167969 28.945312 8.234375 29.0625 8.328125 29.132812 C 8.421875 29.203125 8.566406 29.242188 8.757812 29.242188 Z M 8.757812 29.242188 "/>
<path style=" stroke:none;fill-rule:nonzero;fill:url(#linear3);" d="M 12.453125 29.992188 C 12.066406 29.992188 11.757812 29.925781 11.523438 29.800781 C 11.285156 29.671875 11.109375 29.460938 11.015625 29.207031 C 10.910156 28.941406 10.859375 28.59375 10.859375 28.167969 C 10.859375 27.757812 10.914062 27.425781 11.023438 27.167969 C 11.121094 26.921875 11.304688 26.714844 11.539062 26.589844 C 11.773438 26.464844 12.082031 26.402344 12.453125 26.402344 C 12.832031 26.402344 13.132812 26.464844 13.367188 26.589844 C 13.601562 26.71875 13.789062 26.921875 13.890625 27.167969 C 14 27.425781 14.054688 27.757812 14.054688 28.167969 C 14.054688 28.597656 14.003906 28.941406 13.898438 29.207031 C 13.804688 29.460938 13.628906 29.671875 13.390625 29.800781 C 13.15625 29.925781 12.84375 29.992188 12.453125 29.992188 Z M 12.453125 29.242188 C 12.640625 29.242188 12.789062 29.203125 12.882812 29.136719 C 12.976562 29.0625 13.042969 28.949219 13.078125 28.792969 C 13.113281 28.585938 13.128906 28.378906 13.125 28.171875 C 13.132812 27.972656 13.113281 27.769531 13.066406 27.570312 C 13.027344 27.425781 12.957031 27.316406 12.863281 27.257812 C 12.765625 27.191406 12.628906 27.160156 12.453125 27.15625 C 12.277344 27.15625 12.144531 27.1875 12.046875 27.253906 C 11.949219 27.316406 11.878906 27.421875 11.839844 27.570312 C 11.792969 27.769531 11.773438 27.96875 11.777344 28.167969 C 11.773438 28.378906 11.789062 28.585938 11.832031 28.789062 C 11.863281 28.945312 11.929688 29.0625 12.023438 29.132812 C 12.117188 29.203125 12.261719 29.242188 12.453125 29.242188 Z M 12.453125 29.242188 "/>
<path style=" stroke:none;fill-rule:nonzero;fill:url(#linear4);" d="M 14.703125 29.917969 L 14.703125 25.074219 L 15.609375 25.074219 L 15.609375 29.917969 Z M 14.703125 29.917969 "/>
<path style=" stroke:none;fill-rule:nonzero;fill:url(#linear5);" d="M 17.28125 29.992188 C 16.925781 29.992188 16.660156 29.902344 16.476562 29.722656 C 16.300781 29.542969 16.210938 29.269531 16.210938 28.90625 C 16.210938 28.644531 16.253906 28.449219 16.347656 28.304688 C 16.441406 28.15625 16.585938 28.042969 16.75 27.988281 C 16.964844 27.917969 17.1875 27.878906 17.410156 27.871094 L 18.242188 27.792969 L 18.242188 27.585938 C 18.242188 27.421875 18.199219 27.304688 18.121094 27.238281 C 18.035156 27.171875 17.917969 27.140625 17.757812 27.140625 C 17.628906 27.140625 17.480469 27.144531 17.316406 27.15625 C 17.152344 27.164062 16.988281 27.175781 16.828125 27.1875 C 16.667969 27.199219 16.523438 27.214844 16.40625 27.226562 L 16.378906 26.585938 C 16.496094 26.558594 16.640625 26.527344 16.808594 26.5 C 16.972656 26.46875 17.148438 26.445312 17.328125 26.429688 C 17.511719 26.40625 17.675781 26.398438 17.832031 26.398438 C 18.125 26.398438 18.367188 26.4375 18.5625 26.507812 C 18.75 26.574219 18.902344 26.703125 19.007812 26.867188 C 19.105469 27.039062 19.15625 27.261719 19.15625 27.542969 L 19.15625 29.109375 C 19.160156 29.144531 19.171875 29.171875 19.1875 29.199219 C 19.207031 29.222656 19.230469 29.246094 19.257812 29.261719 C 19.324219 29.296875 19.390625 29.320312 19.464844 29.332031 L 19.445312 29.964844 C 19.335938 29.96875 19.226562 29.96875 19.121094 29.96875 C 19.03125 29.972656 18.941406 29.964844 18.855469 29.949219 C 18.761719 29.9375 18.671875 29.910156 18.585938 29.867188 C 18.519531 29.832031 18.457031 29.789062 18.40625 29.738281 C 18.332031 29.769531 18.238281 29.804688 18.113281 29.847656 C 17.984375 29.890625 17.847656 29.921875 17.714844 29.949219 C 17.570312 29.976562 17.425781 29.992188 17.28125 29.992188 Z M 17.5 29.3125 C 17.589844 29.3125 17.679688 29.304688 17.769531 29.289062 C 17.859375 29.269531 17.949219 29.25 18.039062 29.222656 C 18.109375 29.203125 18.175781 29.179688 18.242188 29.152344 L 18.242188 28.363281 L 17.546875 28.425781 C 17.394531 28.4375 17.289062 28.480469 17.21875 28.558594 C 17.15625 28.632812 17.121094 28.738281 17.121094 28.875 C 17.121094 29.015625 17.15625 29.117188 17.214844 29.199219 C 17.277344 29.277344 17.367188 29.3125 17.5 29.3125 Z M 17.5 29.3125 "/>
<path style=" stroke:none;fill-rule:nonzero;fill:url(#linear6);" d="M 19.933594 29.917969 L 19.933594 28.90625 L 20.875 28.90625 L 20.875 29.917969 Z M 19.933594 29.917969 "/>
<path style=" stroke:none;fill-rule:nonzero;fill:url(#linear7);" d="M 21.601562 29.917969 L 21.601562 26.480469 L 22.507812 26.480469 L 22.507812 26.699219 C 22.59375 26.644531 22.679688 26.601562 22.773438 26.566406 C 22.882812 26.519531 22.992188 26.480469 23.105469 26.453125 C 23.214844 26.417969 23.328125 26.402344 23.445312 26.402344 C 23.757812 26.402344 24.003906 26.460938 24.183594 26.570312 C 24.355469 26.683594 24.480469 26.863281 24.554688 27.117188 C 24.625 27.375 24.664062 27.710938 24.664062 28.136719 L 24.664062 29.914062 L 23.75 29.914062 L 23.75 28.1875 C 23.75 27.992188 23.738281 27.800781 23.707031 27.613281 C 23.683594 27.46875 23.628906 27.367188 23.554688 27.300781 C 23.476562 27.234375 23.359375 27.203125 23.210938 27.203125 C 23.125 27.203125 23.039062 27.210938 22.957031 27.226562 C 22.871094 27.242188 22.785156 27.265625 22.699219 27.292969 C 22.636719 27.316406 22.570312 27.34375 22.507812 27.378906 L 22.507812 29.917969 Z M 21.601562 29.917969 "/>
<path style=" stroke:none;fill-rule:nonzero;fill:url(#linear8);" d="M 26.753906 29.992188 C 26.378906 29.992188 26.078125 29.925781 25.859375 29.800781 C 25.636719 29.667969 25.464844 29.460938 25.386719 29.214844 C 25.289062 28.957031 25.238281 28.628906 25.238281 28.238281 C 25.238281 27.8125 25.300781 27.464844 25.421875 27.195312 C 25.527344 26.945312 25.714844 26.734375 25.949219 26.597656 C 26.183594 26.46875 26.472656 26.402344 26.808594 26.402344 C 27.316406 26.402344 27.695312 26.53125 27.953125 26.789062 C 28.210938 27.042969 28.335938 27.445312 28.335938 28 L 28.296875 28.503906 L 26.15625 28.503906 C 26.160156 28.761719 26.210938 28.953125 26.308594 29.082031 C 26.410156 29.207031 26.585938 29.273438 26.832031 29.277344 C 26.972656 29.277344 27.125 29.273438 27.289062 29.265625 C 27.460938 29.257812 27.625 29.253906 27.789062 29.242188 C 27.957031 29.230469 28.097656 29.222656 28.21875 29.210938 L 28.238281 29.851562 C 28.121094 29.871094 27.980469 29.890625 27.808594 29.910156 C 27.632812 29.933594 27.457031 29.957031 27.273438 29.972656 C 27.09375 29.984375 26.917969 29.992188 26.753906 29.992188 Z M 26.15625 27.921875 L 27.429688 27.921875 C 27.429688 27.617188 27.378906 27.398438 27.28125 27.273438 C 27.1875 27.148438 27.027344 27.085938 26.808594 27.085938 C 26.597656 27.085938 26.433594 27.152344 26.320312 27.28125 C 26.210938 27.410156 26.15625 27.625 26.15625 27.921875 Z M 26.15625 27.921875 "/>
<path style=" stroke:none;fill-rule:nonzero;fill:url(#linear9);" d="M 30.125 30 C 29.875 30 29.671875 29.964844 29.515625 29.890625 C 29.4375 29.855469 29.371094 29.796875 29.3125 29.734375 C 29.257812 29.667969 29.210938 29.59375 29.183594 29.511719 C 29.117188 29.328125 29.085938 29.078125 29.085938 28.75 L 29.085938 27.238281 L 28.683594 27.238281 L 28.683594 26.480469 L 29.085938 26.480469 L 29.085938 25.566406 L 29.996094 25.566406 L 29.996094 26.480469 L 30.867188 26.480469 L 30.867188 27.238281 L 29.996094 27.238281 L 29.996094 28.511719 C 29.992188 28.65625 30 28.792969 30.015625 28.933594 C 30.03125 29.03125 30.066406 29.101562 30.125 29.144531 C 30.175781 29.183594 30.261719 29.203125 30.375 29.203125 C 30.40625 29.203125 30.453125 29.203125 30.519531 29.199219 L 30.710938 29.183594 C 30.773438 29.179688 30.828125 29.175781 30.867188 29.171875 L 30.894531 29.902344 C 30.785156 29.921875 30.652344 29.945312 30.503906 29.96875 C 30.378906 29.988281 30.25 29.996094 30.125 30 Z M 30.125 30 "/>
<path style=" stroke:none;fill-rule:nonzero;fill:url(#linear10);" d="M 30.875 11.902344 L 22.378906 24.183594 C 18.925781 21.042969 12.28125 22.058594 11.308594 22.234375 C 16.6875 19.171875 21.878906 22.023438 21.878906 22.023438 L 28.21875 12.671875 C 27.488281 11.320312 24.335938 10.625 24.335938 10.625 L 24.453125 9.699219 C 27.222656 9.582031 30.875 11.902344 30.875 11.902344 Z M 30.875 11.902344 "/>
<path style=" stroke:none;fill-rule:nonzero;fill:url(#linear11);" d="M 24.625 4.382812 L 22.109375 19.125 C 22.109375 19.125 15.109375 18.429688 11.308594 22.234375 C 11.230469 22.277344 11.152344 22.320312 11.070312 22.371094 C 11.070312 22.371094 13.535156 17.734375 20.722656 17.425781 L 22.609375 6.105469 C 22.609375 6.105469 17.648438 5.253906 13.632812 7.4375 C 13.632812 7.4375 18.742188 3.460938 24.625 4.382812 Z M 24.625 4.382812 "/>
<path style=" stroke:none;fill-rule:nonzero;fill:url(#linear12);" d="M 21.148438 7.53125 L 20.992188 8.960938 C 20.992188 8.960938 16.878906 8.691406 13.882812 10.351562 C 13.921875 10.316406 16.605469 7.765625 21.148438 7.53125 Z M 21.148438 7.53125 "/>
<path style=" stroke:none;fill-rule:nonzero;fill:url(#linear13);" d="M 20.570312 10.78125 L 20.417969 12.207031 C 20.417969 12.207031 16.304688 11.9375 13.304688 13.601562 C 13.34375 13.5625 16.027344 11.011719 20.570312 10.78125 Z M 20.570312 10.78125 "/>
<path style=" stroke:none;fill-rule:nonzero;fill:url(#linear14);" d="M 19.957031 14.0625 L 19.796875 15.492188 C 19.796875 15.492188 15.6875 15.222656 12.6875 16.882812 C 12.730469 16.847656 15.414062 14.296875 19.957031 14.0625 Z M 19.957031 14.0625 "/>
<path style=" stroke:none;fill-rule:nonzero;fill:url(#linear15);" d="M 18.453125 0.195312 C 11.878906 5.488281 11.84375 13.601562 11.84375 13.601562 C 8.191406 9.542969 5.34375 8.960938 5.34375 8.960938 C 10.457031 13.25 11.070312 22.40625 11.070312 22.40625 C 6.152344 9.464844 0 6.835938 0 6.835938 C 6.652344 5.640625 10.382812 10.121094 10.382812 10.121094 C 12.6875 1.585938 18.453125 0.195312 18.453125 0.195312 Z M 18.453125 0.195312 "/>
<path style=" stroke:none;fill-rule:nonzero;fill:url(#linear16);" d="M 8.167969 4.675781 C 9.453125 4.675781 10.496094 3.628906 10.496094 2.335938 C 10.496094 1.046875 9.453125 0 8.167969 0 C 6.886719 0 5.84375 1.046875 5.84375 2.335938 C 5.84375 3.628906 6.886719 4.675781 8.167969 4.675781 Z M 8.167969 4.675781 "/>
</g>
</svg>
