<?xml version="1.0" encoding="UTF-8"?>
<svg xmlns="http://www.w3.org/2000/svg" xmlns:xlink="http://www.w3.org/1999/xlink" width="60px" height="58px" viewBox="0 0 30 29" version="1.1">
<defs>
<linearGradient id="linear0" gradientUnits="userSpaceOnUse" x1="0.0731744" y1="104.784" x2="12.7104" y2="104.784" gradientTransform="matrix(0.254237,0,0,0.254386,0,0)">
<stop offset="0" style="stop-color:rgb(27.058824%,69.019608%,28.627451%);stop-opacity:1;"/>
<stop offset="0.99" style="stop-color:rgb(16.862745%,58.431373%,27.45098%);stop-opacity:1;"/>
</linearGradient>
<linearGradient id="linear1" gradientUnits="userSpaceOnUse" x1="14.9935" y1="104.485" x2="26.4629" y2="104.485" gradientTransform="matrix(0.254237,0,0,0.254386,0,0)">
<stop offset="0" style="stop-color:rgb(27.058824%,69.019608%,28.627451%);stop-opacity:1;"/>
<stop offset="0.99" style="stop-color:rgb(16.862745%,58.431373%,27.45098%);stop-opacity:1;"/>
</linearGradient>
<linearGradient id="linear2" gradientUnits="userSpaceOnUse" x1="27.2664" y1="107.154" x2="39.4368" y2="107.154" gradientTransform="matrix(0.254237,0,0,0.254386,0,0)">
<stop offset="0" style="stop-color:rgb(27.058824%,69.019608%,28.627451%);stop-opacity:1;"/>
<stop offset="0.99" style="stop-color:rgb(16.862745%,58.431373%,27.45098%);stop-opacity:1;"/>
</linearGradient>
<linearGradient id="linear3" gradientUnits="userSpaceOnUse" x1="41.3305" y1="107.154" x2="53.5009" y2="107.154" gradientTransform="matrix(0.254237,0,0,0.254386,0,0)">
<stop offset="0" style="stop-color:rgb(27.058824%,69.019608%,28.627451%);stop-opacity:1;"/>
<stop offset="0.99" style="stop-color:rgb(16.862745%,58.431373%,27.45098%);stop-opacity:1;"/>
</linearGradient>
<linearGradient id="linear4" gradientUnits="userSpaceOnUse" x1="55.9655" y1="104.485" x2="59.4164" y2="104.485" gradientTransform="matrix(0.254237,0,0,0.254386,0,0)">
<stop offset="0" style="stop-color:rgb(27.058824%,69.019608%,28.627451%);stop-opacity:1;"/>
<stop offset="0.99" style="stop-color:rgb(16.862745%,58.431373%,27.45098%);stop-opacity:1;"/>
</linearGradient>
<linearGradient id="linear5" gradientUnits="userSpaceOnUse" x1="61.6994" y1="107.154" x2="74.0776" y2="107.154" gradientTransform="matrix(0.254237,0,0,0.254386,0,0)">
<stop offset="0" style="stop-color:rgb(27.058824%,69.019608%,28.627451%);stop-opacity:1;"/>
<stop offset="0.99" style="stop-color:rgb(16.862745%,58.431373%,27.45098%);stop-opacity:1;"/>
</linearGradient>
<linearGradient id="linear6" gradientUnits="userSpaceOnUse" x1="75.8675" y1="111.761" x2="79.4735" y2="111.761" gradientTransform="matrix(0.254237,0,0,0.254386,0,0)">
<stop offset="0" style="stop-color:rgb(27.058824%,69.019608%,28.627451%);stop-opacity:1;"/>
<stop offset="0.99" style="stop-color:rgb(16.862745%,58.431373%,27.45098%);stop-opacity:1;"/>
</linearGradient>
<linearGradient id="linear7" gradientUnits="userSpaceOnUse" x1="82.2249" y1="107.01" x2="93.8758" y2="107.01" gradientTransform="matrix(0.254237,0,0,0.254386,0,0)">
<stop offset="0" style="stop-color:rgb(27.058824%,69.019608%,28.627451%);stop-opacity:1;"/>
<stop offset="0.99" style="stop-color:rgb(16.862745%,58.431373%,27.45098%);stop-opacity:1;"/>
</linearGradient>
<linearGradient id="linear8" gradientUnits="userSpaceOnUse" x1="96.0813" y1="107.154" x2="107.861" y2="107.154" gradientTransform="matrix(0.254237,0,0,0.254386,0,0)">
<stop offset="0" style="stop-color:rgb(27.058824%,69.019608%,28.627451%);stop-opacity:1;"/>
<stop offset="0.99" style="stop-color:rgb(16.862745%,58.431373%,27.45098%);stop-opacity:1;"/>
</linearGradient>
<linearGradient id="linear9" gradientUnits="userSpaceOnUse" x1="109.184" y1="105.579" x2="117.592" y2="105.579" gradientTransform="matrix(0.254237,0,0,0.254386,0,0)">
<stop offset="0" style="stop-color:rgb(27.058824%,69.019608%,28.627451%);stop-opacity:1;"/>
<stop offset="0.99" style="stop-color:rgb(16.862745%,58.431373%,27.45098%);stop-opacity:1;"/>
</linearGradient>
<linearGradient id="linear10" gradientUnits="userSpaceOnUse" x1="43.0472" y1="64.3717" x2="117.519" y2="64.3717" gradientTransform="matrix(0.254237,0,0,0.254386,0,0)">
<stop offset="0" style="stop-color:rgb(27.058824%,69.019608%,28.627451%);stop-opacity:1;"/>
<stop offset="0.99" style="stop-color:rgb(16.862745%,58.431373%,27.45098%);stop-opacity:1;"/>
</linearGradient>
<linearGradient id="linear11" gradientUnits="userSpaceOnUse" x1="42.1486" y1="50.5695" x2="93.7368" y2="50.5695" gradientTransform="matrix(0.254237,0,0,0.254386,0,0)">
<stop offset="0" style="stop-color:rgb(27.058824%,69.019608%,28.627451%);stop-opacity:1;"/>
<stop offset="0.99" style="stop-color:rgb(16.862745%,58.431373%,27.45098%);stop-opacity:1;"/>
</linearGradient>
<linearGradient id="linear12" gradientUnits="userSpaceOnUse" x1="52.8336" y1="33.9865" x2="80.4921" y2="33.9865" gradientTransform="matrix(0.254237,0,0,0.254386,0,0)">
<stop offset="0" style="stop-color:rgb(27.058824%,69.019608%,28.627451%);stop-opacity:1;"/>
<stop offset="0.99" style="stop-color:rgb(16.862745%,58.431373%,27.45098%);stop-opacity:1;"/>
</linearGradient>
<linearGradient id="linear13" gradientUnits="userSpaceOnUse" x1="50.6383" y1="46.3191" x2="78.2969" y2="46.3191" gradientTransform="matrix(0.254237,0,0,0.254386,0,0)">
<stop offset="0" style="stop-color:rgb(27.058824%,69.019608%,28.627451%);stop-opacity:1;"/>
<stop offset="0.99" style="stop-color:rgb(16.862745%,58.431373%,27.45098%);stop-opacity:1;"/>
</linearGradient>
<linearGradient id="linear14" gradientUnits="userSpaceOnUse" x1="48.2968" y1="58.7985" x2="75.9553" y2="58.7985" gradientTransform="matrix(0.254237,0,0,0.254386,0,0)">
<stop offset="0" style="stop-color:rgb(27.058824%,69.019608%,28.627451%);stop-opacity:1;"/>
<stop offset="0.99" style="stop-color:rgb(16.862745%,58.431373%,27.45098%);stop-opacity:1;"/>
</linearGradient>
<linearGradient id="linear15" gradientUnits="userSpaceOnUse" x1="0" y1="42.9438" x2="70.2477" y2="42.9438" gradientTransform="matrix(0.254237,0,0,0.254386,0,0)">
<stop offset="0" style="stop-color:rgb(24.705882%,51.764706%,77.254902%);stop-opacity:1;"/>
<stop offset="0.99" style="stop-color:rgb(20.784314%,36.470588%,66.666667%);stop-opacity:1;"/>
</linearGradient>
<linearGradient id="linear16" gradientUnits="userSpaceOnUse" x1="22.2451" y1="8.88239" x2="39.9534" y2="8.88239" gradientTransform="matrix(0.254237,0,0,0.254386,0,0)">
<stop offset="0" style="stop-color:rgb(24.705882%,51.764706%,77.254902%);stop-opacity:1;"/>
<stop offset="0.99" style="stop-color:rgb(20.784314%,36.470588%,66.666667%);stop-opacity:1;"/>
</linearGradient>
</defs>
<g id="surface1">
<path style=" stroke:none;fill-rule:nonzero;fill:url(#linear0);" d="M 1.65625 28.992188 C 1.488281 28.992188 1.304688 28.984375 1.105469 28.964844 C 0.910156 28.945312 0.714844 28.917969 0.53125 28.886719 C 0.34375 28.859375 0.183594 28.835938 0.0507812 28.8125 L 0.113281 28.09375 C 0.246094 28.109375 0.40625 28.128906 0.585938 28.148438 C 0.765625 28.167969 0.945312 28.183594 1.125 28.199219 C 1.300781 28.210938 1.457031 28.21875 1.589844 28.21875 C 1.839844 28.21875 2.023438 28.167969 2.136719 28.070312 C 2.25 27.96875 2.308594 27.8125 2.308594 27.601562 C 2.3125 27.507812 2.289062 27.410156 2.238281 27.328125 C 2.191406 27.257812 2.109375 27.203125 1.988281 27.164062 C 1.828125 27.109375 1.664062 27.070312 1.496094 27.039062 C 1.144531 26.972656 0.859375 26.890625 0.640625 26.796875 C 0.421875 26.699219 0.265625 26.5625 0.164062 26.382812 C 0.0664062 26.207031 0.015625 25.972656 0.015625 25.675781 C 0.015625 25.332031 0.0820312 25.058594 0.207031 24.863281 C 0.339844 24.664062 0.53125 24.515625 0.753906 24.441406 C 1.027344 24.355469 1.308594 24.3125 1.59375 24.316406 C 1.738281 24.316406 1.90625 24.324219 2.089844 24.339844 C 2.277344 24.355469 2.464844 24.375 2.644531 24.394531 C 2.828125 24.417969 2.984375 24.441406 3.109375 24.472656 L 3.070312 25.199219 C 2.9375 25.183594 2.785156 25.164062 2.613281 25.148438 C 2.4375 25.132812 2.265625 25.121094 2.097656 25.105469 C 1.929688 25.09375 1.785156 25.085938 1.667969 25.085938 C 1.414062 25.085938 1.230469 25.125 1.113281 25.207031 C 0.992188 25.285156 0.933594 25.414062 0.933594 25.589844 C 0.933594 25.722656 0.960938 25.824219 1.011719 25.894531 C 1.066406 25.964844 1.15625 26.023438 1.28125 26.066406 C 1.449219 26.125 1.621094 26.171875 1.796875 26.207031 C 2.023438 26.253906 2.242188 26.316406 2.460938 26.394531 C 2.621094 26.445312 2.769531 26.527344 2.90625 26.628906 C 3.019531 26.722656 3.105469 26.847656 3.152344 26.988281 C 3.210938 27.164062 3.238281 27.351562 3.230469 27.535156 C 3.230469 27.890625 3.167969 28.171875 3.042969 28.386719 C 2.921875 28.597656 2.730469 28.761719 2.503906 28.851562 C 2.265625 28.945312 1.984375 28.992188 1.65625 28.992188 Z M 1.65625 28.992188 "/>
<path style=" stroke:none;fill-rule:nonzero;fill:url(#linear1);" d="M 3.8125 28.921875 L 3.8125 24.238281 L 4.6875 24.238281 L 4.6875 26.847656 L 5.078125 26.835938 L 5.761719 25.597656 L 6.679688 25.597656 L 5.84375 27.160156 L 6.726562 28.921875 L 5.804688 28.921875 L 5.09375 27.601562 L 4.6875 27.621094 L 4.6875 28.921875 Z M 3.8125 28.921875 "/>
<path style=" stroke:none;fill-rule:nonzero;fill:url(#linear2);" d="M 8.476562 28.992188 C 8.101562 28.992188 7.800781 28.929688 7.574219 28.808594 C 7.347656 28.683594 7.171875 28.480469 7.082031 28.234375 C 6.984375 27.976562 6.933594 27.640625 6.933594 27.230469 C 6.933594 26.832031 6.984375 26.511719 7.089844 26.261719 C 7.1875 26.023438 7.363281 25.824219 7.589844 25.707031 C 7.820312 25.585938 8.113281 25.523438 8.472656 25.523438 C 8.839844 25.523438 9.136719 25.585938 9.363281 25.707031 C 9.589844 25.828125 9.765625 26.023438 9.863281 26.261719 C 9.972656 26.511719 10.023438 26.835938 10.023438 27.234375 C 10.023438 27.644531 9.972656 27.976562 9.871094 28.234375 C 9.785156 28.480469 9.609375 28.683594 9.382812 28.808594 C 9.15625 28.929688 8.851562 28.992188 8.476562 28.992188 Z M 8.476562 28.265625 C 8.660156 28.265625 8.800781 28.230469 8.890625 28.164062 C 8.984375 28.09375 9.046875 27.984375 9.078125 27.832031 C 9.117188 27.632812 9.132812 27.433594 9.128906 27.234375 C 9.132812 27.039062 9.113281 26.84375 9.070312 26.652344 C 9.03125 26.511719 8.964844 26.40625 8.871094 26.347656 C 8.777344 26.285156 8.648438 26.253906 8.476562 26.25 C 8.308594 26.25 8.179688 26.28125 8.082031 26.34375 C 7.988281 26.40625 7.921875 26.507812 7.882812 26.652344 C 7.835938 26.84375 7.816406 27.035156 7.824219 27.230469 C 7.820312 27.433594 7.835938 27.632812 7.871094 27.828125 C 7.90625 27.980469 7.96875 28.09375 8.058594 28.160156 C 8.148438 28.230469 8.289062 28.265625 8.476562 28.265625 Z M 8.476562 28.265625 "/>
<path style=" stroke:none;fill-rule:nonzero;fill:url(#linear3);" d="M 12.050781 28.992188 C 11.675781 28.992188 11.378906 28.929688 11.152344 28.808594 C 10.921875 28.683594 10.75 28.480469 10.660156 28.234375 C 10.558594 27.976562 10.507812 27.640625 10.507812 27.230469 C 10.507812 26.832031 10.5625 26.511719 10.667969 26.261719 C 10.761719 26.023438 10.941406 25.824219 11.167969 25.703125 C 11.394531 25.582031 11.691406 25.523438 12.050781 25.523438 C 12.417969 25.523438 12.710938 25.582031 12.9375 25.703125 C 13.164062 25.828125 13.34375 26.023438 13.441406 26.261719 C 13.546875 26.511719 13.601562 26.832031 13.601562 27.230469 C 13.601562 27.644531 13.550781 27.976562 13.449219 28.234375 C 13.359375 28.480469 13.1875 28.683594 12.957031 28.808594 C 12.730469 28.929688 12.429688 28.992188 12.050781 28.992188 Z M 12.050781 28.265625 C 12.234375 28.265625 12.375 28.230469 12.46875 28.164062 C 12.558594 28.09375 12.621094 27.984375 12.65625 27.832031 C 12.691406 27.632812 12.707031 27.433594 12.703125 27.234375 C 12.710938 27.039062 12.691406 26.84375 12.644531 26.652344 C 12.605469 26.511719 12.539062 26.40625 12.449219 26.347656 C 12.355469 26.285156 12.222656 26.253906 12.050781 26.25 C 11.882812 26.25 11.753906 26.28125 11.660156 26.34375 C 11.5625 26.40625 11.496094 26.507812 11.457031 26.652344 C 11.414062 26.84375 11.394531 27.035156 11.398438 27.230469 C 11.394531 27.433594 11.410156 27.632812 11.449219 27.828125 C 11.480469 27.980469 11.542969 28.09375 11.636719 28.160156 C 11.726562 28.230469 11.867188 28.265625 12.050781 28.265625 Z M 12.050781 28.265625 "/>
<path style=" stroke:none;fill-rule:nonzero;fill:url(#linear4);" d="M 14.230469 28.921875 L 14.230469 24.238281 L 15.105469 24.238281 L 15.105469 28.921875 Z M 14.230469 28.921875 "/>
<path style=" stroke:none;fill-rule:nonzero;fill:url(#linear5);" d="M 16.722656 28.992188 C 16.378906 28.992188 16.121094 28.90625 15.945312 28.730469 C 15.773438 28.558594 15.6875 28.292969 15.6875 27.941406 C 15.6875 27.691406 15.730469 27.5 15.820312 27.359375 C 15.910156 27.21875 16.050781 27.109375 16.210938 27.054688 C 16.417969 26.988281 16.632812 26.949219 16.847656 26.941406 L 17.652344 26.867188 L 17.652344 26.667969 C 17.652344 26.507812 17.613281 26.394531 17.535156 26.332031 C 17.453125 26.265625 17.339844 26.234375 17.183594 26.234375 C 17.058594 26.234375 16.917969 26.238281 16.757812 26.25 C 16.597656 26.257812 16.441406 26.269531 16.285156 26.28125 C 16.128906 26.292969 15.992188 26.308594 15.878906 26.320312 L 15.851562 25.699219 C 15.964844 25.671875 16.105469 25.644531 16.265625 25.617188 C 16.425781 25.585938 16.59375 25.5625 16.769531 25.546875 C 16.945312 25.527344 17.105469 25.519531 17.257812 25.519531 C 17.539062 25.519531 17.773438 25.554688 17.964844 25.625 C 18.144531 25.6875 18.292969 25.8125 18.394531 25.972656 C 18.488281 26.136719 18.539062 26.351562 18.539062 26.625 L 18.539062 28.140625 C 18.542969 28.171875 18.554688 28.199219 18.570312 28.226562 C 18.585938 28.25 18.609375 28.269531 18.636719 28.285156 C 18.699219 28.320312 18.765625 28.34375 18.835938 28.355469 L 18.816406 28.964844 C 18.710938 28.96875 18.605469 28.96875 18.503906 28.96875 C 18.417969 28.972656 18.332031 28.964844 18.246094 28.949219 C 18.15625 28.941406 18.070312 28.914062 17.988281 28.871094 C 17.921875 28.835938 17.863281 28.796875 17.8125 28.746094 C 17.742188 28.777344 17.648438 28.8125 17.527344 28.851562 C 17.402344 28.894531 17.273438 28.925781 17.144531 28.949219 C 17.003906 28.976562 16.863281 28.992188 16.722656 28.992188 Z M 16.933594 28.335938 C 17.023438 28.335938 17.109375 28.328125 17.195312 28.3125 C 17.285156 28.292969 17.371094 28.273438 17.457031 28.25 C 17.523438 28.230469 17.589844 28.207031 17.652344 28.179688 L 17.652344 27.417969 L 16.980469 27.476562 C 16.832031 27.488281 16.730469 27.53125 16.664062 27.605469 C 16.601562 27.679688 16.570312 27.78125 16.570312 27.914062 C 16.570312 28.046875 16.601562 28.148438 16.660156 28.226562 C 16.71875 28.300781 16.808594 28.335938 16.933594 28.335938 Z M 16.933594 28.335938 "/>
<path style=" stroke:none;fill-rule:nonzero;fill:url(#linear6);" d="M 19.289062 28.921875 L 19.289062 27.941406 L 20.203125 27.941406 L 20.203125 28.921875 Z M 19.289062 28.921875 "/>
<path style=" stroke:none;fill-rule:nonzero;fill:url(#linear7);" d="M 20.90625 28.921875 L 20.90625 25.597656 L 21.78125 25.597656 L 21.78125 25.808594 C 21.863281 25.757812 21.949219 25.714844 22.039062 25.679688 C 22.144531 25.636719 22.25 25.597656 22.359375 25.570312 C 22.464844 25.539062 22.574219 25.523438 22.6875 25.523438 C 22.992188 25.523438 23.230469 25.578125 23.402344 25.683594 C 23.570312 25.792969 23.691406 25.96875 23.761719 26.214844 C 23.832031 26.460938 23.867188 26.789062 23.867188 27.199219 L 23.867188 28.917969 L 22.984375 28.917969 L 22.984375 27.246094 C 22.984375 27.058594 22.972656 26.875 22.941406 26.691406 C 22.917969 26.554688 22.867188 26.453125 22.792969 26.390625 C 22.71875 26.328125 22.605469 26.296875 22.460938 26.296875 C 22.378906 26.296875 22.296875 26.304688 22.214844 26.320312 C 22.132812 26.335938 22.050781 26.355469 21.96875 26.382812 C 21.90625 26.40625 21.84375 26.433594 21.78125 26.464844 L 21.78125 28.921875 Z M 20.90625 28.921875 "/>
<path style=" stroke:none;fill-rule:nonzero;fill:url(#linear8);" d="M 25.890625 28.992188 C 25.527344 28.992188 25.238281 28.929688 25.023438 28.808594 C 24.808594 28.679688 24.644531 28.480469 24.566406 28.242188 C 24.472656 27.992188 24.425781 27.675781 24.425781 27.296875 C 24.425781 26.886719 24.484375 26.550781 24.601562 26.289062 C 24.703125 26.046875 24.886719 25.84375 25.113281 25.710938 C 25.339844 25.585938 25.617188 25.523438 25.945312 25.523438 C 26.433594 25.523438 26.800781 25.648438 27.050781 25.894531 C 27.300781 26.140625 27.421875 26.53125 27.421875 27.066406 L 27.382812 27.554688 L 25.3125 27.554688 C 25.316406 27.804688 25.367188 27.988281 25.460938 28.113281 C 25.558594 28.234375 25.726562 28.296875 25.964844 28.300781 C 26.101562 28.300781 26.25 28.296875 26.410156 28.289062 C 26.574219 28.28125 26.734375 28.277344 26.894531 28.265625 C 27.054688 28.257812 27.191406 28.25 27.308594 28.238281 L 27.328125 28.855469 C 27.214844 28.875 27.078125 28.894531 26.910156 28.914062 C 26.742188 28.9375 26.570312 28.957031 26.394531 28.972656 C 26.21875 28.984375 26.050781 28.992188 25.890625 28.992188 Z M 25.3125 26.992188 L 26.542969 26.992188 C 26.542969 26.695312 26.496094 26.484375 26.402344 26.363281 C 26.308594 26.242188 26.15625 26.183594 25.945312 26.183594 C 25.738281 26.183594 25.582031 26.246094 25.472656 26.371094 C 25.367188 26.496094 25.3125 26.703125 25.3125 26.992188 Z M 25.3125 26.992188 "/>
<path style=" stroke:none;fill-rule:nonzero;fill:url(#linear9);" d="M 29.152344 29 C 28.910156 29 28.714844 28.964844 28.5625 28.894531 C 28.488281 28.859375 28.421875 28.804688 28.367188 28.742188 C 28.3125 28.679688 28.269531 28.605469 28.242188 28.527344 C 28.179688 28.351562 28.148438 28.109375 28.148438 27.792969 L 28.148438 26.332031 L 27.757812 26.332031 L 27.757812 25.597656 L 28.148438 25.597656 L 28.148438 24.714844 L 29.027344 24.714844 L 29.027344 25.597656 L 29.871094 25.597656 L 29.871094 26.332031 L 29.027344 26.332031 L 29.027344 27.5625 C 29.023438 27.699219 29.03125 27.832031 29.046875 27.96875 C 29.0625 28.0625 29.097656 28.132812 29.152344 28.171875 C 29.203125 28.210938 29.285156 28.230469 29.394531 28.230469 C 29.425781 28.230469 29.472656 28.230469 29.535156 28.226562 L 29.71875 28.210938 C 29.78125 28.207031 29.832031 28.203125 29.871094 28.199219 L 29.898438 28.90625 C 29.792969 28.925781 29.664062 28.945312 29.519531 28.96875 C 29.398438 28.988281 29.273438 28.996094 29.152344 29 Z M 29.152344 29 "/>
<path style=" stroke:none;fill-rule:nonzero;fill:url(#linear10);" d="M 29.878906 11.503906 L 21.65625 23.378906 C 18.316406 20.339844 11.886719 21.324219 10.945312 21.492188 C 16.148438 18.53125 21.171875 21.289062 21.171875 21.289062 L 27.308594 12.25 C 26.601562 10.941406 23.550781 10.269531 23.550781 10.269531 L 23.664062 9.375 C 26.34375 9.261719 29.878906 11.503906 29.878906 11.503906 Z M 29.878906 11.503906 "/>
<path style=" stroke:none;fill-rule:nonzero;fill:url(#linear11);" d="M 23.832031 4.238281 L 21.394531 18.488281 C 21.394531 18.488281 14.621094 17.816406 10.945312 21.492188 C 10.867188 21.535156 10.792969 21.578125 10.714844 21.625 C 10.714844 21.625 13.097656 17.144531 20.054688 16.84375 L 21.878906 5.902344 C 21.878906 5.902344 17.078125 5.078125 13.191406 7.191406 C 13.191406 7.191406 18.136719 3.34375 23.832031 4.238281 Z M 23.832031 4.238281 "/>
<path style=" stroke:none;fill-rule:nonzero;fill:url(#linear12);" d="M 20.464844 7.28125 L 20.316406 8.664062 C 20.316406 8.664062 16.335938 8.402344 13.433594 10.007812 C 13.472656 9.972656 16.070312 7.507812 20.464844 7.28125 Z M 20.464844 7.28125 "/>
<path style=" stroke:none;fill-rule:nonzero;fill:url(#linear13);" d="M 19.90625 10.421875 L 19.757812 11.800781 C 19.757812 11.800781 15.777344 11.539062 12.875 13.148438 C 12.914062 13.109375 15.511719 10.644531 19.90625 10.421875 Z M 19.90625 10.421875 "/>
<path style=" stroke:none;fill-rule:nonzero;fill:url(#linear14);" d="M 19.3125 13.59375 L 19.160156 14.976562 C 19.160156 14.976562 15.179688 14.714844 12.277344 16.320312 C 12.320312 16.285156 14.917969 13.820312 19.3125 13.59375 Z M 19.3125 13.59375 "/>
<path style=" stroke:none;fill-rule:nonzero;fill:url(#linear15);" d="M 17.859375 0.1875 C 11.496094 5.304688 11.460938 13.148438 11.460938 13.148438 C 7.925781 9.226562 5.171875 8.664062 5.171875 8.664062 C 10.121094 12.808594 10.714844 21.660156 10.714844 21.660156 C 5.953125 9.148438 0 6.609375 0 6.609375 C 6.4375 5.453125 10.046875 9.785156 10.046875 9.785156 C 12.277344 1.53125 17.859375 0.1875 17.859375 0.1875 Z M 17.859375 0.1875 "/>
<path style=" stroke:none;fill-rule:nonzero;fill:url(#linear16);" d="M 7.90625 4.519531 C 9.148438 4.519531 10.15625 3.507812 10.15625 2.257812 C 10.15625 1.011719 9.148438 0 7.90625 0 C 6.664062 0 5.65625 1.011719 5.65625 2.257812 C 5.65625 3.507812 6.664062 4.519531 7.90625 4.519531 Z M 7.90625 4.519531 "/>
</g>
</svg>
