<svg width="18" height="16" viewBox="0 0 18 16" fill="none" xmlns="http://www.w3.org/2000/svg">
<path d="M17.875 7C17.8757 6.28225 17.6997 5.57535 17.3627 4.94164C17.0257 4.30793 16.5379 3.76688 15.9424 3.36618C15.3469 2.96548 14.662 2.71745 13.948 2.64395C13.234 2.57045 12.5129 2.67375 11.8483 2.94472C11.1836 3.2157 10.5959 3.64604 10.1368 4.1978C9.67776 4.74956 9.3615 5.40579 9.21593 6.10862C9.07036 6.81146 9.09994 7.53932 9.30207 8.22803C9.5042 8.91674 9.87268 9.54513 10.375 10.0578V14.5C10.3749 14.6066 10.4021 14.7114 10.454 14.8046C10.5058 14.8977 10.5807 14.976 10.6713 15.032C10.762 15.0881 10.8655 15.12 10.9719 15.1248C11.0784 15.1296 11.1844 15.1071 11.2797 15.0594L13.5 13.9484L15.7203 15.0594C15.8156 15.1071 15.9216 15.1296 16.0281 15.1248C16.1345 15.12 16.238 15.0881 16.3287 15.032C16.4193 14.976 16.4942 14.8977 16.546 14.8046C16.5979 14.7114 16.6251 14.6066 16.625 14.5V10.0578C17.4266 9.24195 17.8755 8.14377 17.875 7ZM13.5 3.875C14.1181 3.875 14.7223 4.05828 15.2362 4.40166C15.7501 4.74504 16.1506 5.2331 16.3871 5.80412C16.6236 6.37514 16.6855 7.00347 16.565 7.60966C16.4444 8.21585 16.1467 8.77267 15.7097 9.20971C15.2727 9.64675 14.7158 9.94438 14.1097 10.065C13.5035 10.1855 12.8751 10.1237 12.3041 9.88713C11.7331 9.6506 11.245 9.25006 10.9017 8.73616C10.5583 8.22226 10.375 7.61807 10.375 7C10.375 6.1712 10.7042 5.37634 11.2903 4.79029C11.8763 4.20424 12.6712 3.875 13.5 3.875ZM13.7797 12.6906C13.6929 12.6472 13.5971 12.6246 13.5 12.6246C13.4029 12.6246 13.3071 12.6472 13.2203 12.6906L11.625 13.4891V10.9523C12.2109 11.2306 12.8514 11.375 13.5 11.375C14.1486 11.375 14.7891 11.2306 15.375 10.9523V13.4891L13.7797 12.6906ZM9.125 12C9.125 12.1658 9.05915 12.3247 8.94194 12.4419C8.82473 12.5592 8.66576 12.625 8.5 12.625H1.625C1.29348 12.625 0.975537 12.4933 0.741116 12.2589C0.506696 12.0245 0.375 11.7065 0.375 11.375V1.375C0.375 1.04348 0.506696 0.725537 0.741116 0.491117C0.975537 0.256696 1.29348 0.125 1.625 0.125H15.375C15.7065 0.125 16.0245 0.256696 16.2589 0.491117C16.4933 0.725537 16.625 1.04348 16.625 1.375C16.625 1.54076 16.5592 1.69973 16.4419 1.81694C16.3247 1.93415 16.1658 2 16 2C15.8342 2 15.6753 1.93415 15.5581 1.81694C15.4408 1.69973 15.375 1.54076 15.375 1.375H1.625V11.375H8.5C8.66576 11.375 8.82473 11.4409 8.94194 11.5581C9.05915 11.6753 9.125 11.8342 9.125 12ZM7.875 7.625C7.875 7.79076 7.80915 7.94973 7.69194 8.06694C7.57473 8.18415 7.41576 8.25 7.25 8.25H4.125C3.95924 8.25 3.80027 8.18415 3.68306 8.06694C3.56585 7.94973 3.5 7.79076 3.5 7.625C3.5 7.45924 3.56585 7.30027 3.68306 7.18306C3.80027 7.06585 3.95924 7 4.125 7H7.25C7.41576 7 7.57473 7.06585 7.69194 7.18306C7.80915 7.30027 7.875 7.45924 7.875 7.625ZM7.875 5.125C7.875 5.29076 7.80915 5.44973 7.69194 5.56694C7.57473 5.68415 7.41576 5.75 7.25 5.75H4.125C3.95924 5.75 3.80027 5.68415 3.68306 5.56694C3.56585 5.44973 3.5 5.29076 3.5 5.125C3.5 4.95924 3.56585 4.80027 3.68306 4.68306C3.80027 4.56585 3.95924 4.5 4.125 4.5H7.25C7.41576 4.5 7.57473 4.56585 7.69194 4.68306C7.80915 4.80027 7.875 4.95924 7.875 5.125Z" fill="#4B5768"/>
</svg>
