<svg width="24" height="24" viewBox="0 0 24 24" fill="none" xmlns="http://www.w3.org/2000/svg">
<g clip-path="url(#clip0_103_15757)">
<path d="M23.0021 12.5109C23.0021 16.4608 19.8183 19.6605 15.8917 19.6605C11.9651 19.6605 8.78125 16.4608 8.78125 12.5109C8.78125 8.56101 11.9601 5.36133 15.8867 5.36133C19.8133 5.36133 23.0021 8.56101 23.0021 12.5109Z" fill="#F79F1A"/>
<path d="M14.2228 12.5109C14.2228 16.4608 11.039 19.6605 7.11238 19.6605C3.1858 19.6605 0.00195312 16.4608 0.00195312 12.5109C0.00195312 8.56101 3.1858 5.36133 7.11238 5.36133C11.039 5.36133 14.2228 8.56101 14.2228 12.5109Z" fill="#EA001B"/>
<path d="M11.4997 6.88184C9.84095 8.18854 8.77637 10.2256 8.77637 12.5111C8.77637 14.7966 9.84095 16.8336 11.4997 18.1403C13.1585 16.8336 14.2231 14.7966 14.2231 12.5111C14.2231 10.2256 13.1585 8.19351 11.4997 6.88184Z" fill="#FF5F01"/>
<path d="M22.9848 16.3076V16.0551H22.9219L22.8464 16.2319L22.7709 16.0488H22.7017V16.3013H22.7457V16.1119L22.8149 16.2761H22.8653L22.9407 16.1119V16.3076H22.9848ZM22.5633 16.3076V16.093H22.6514V16.0488H22.4375V16.093H22.5256V16.3076H22.5633Z" fill="#F79F1A"/>
</g>
<defs>
<clipPath id="clip0_103_15757">
<rect width="23" height="15" fill="white" transform="translate(0 5)"/>
</clipPath>
</defs>
</svg>
