<svg width="50" height="48" viewBox="0 0 50 48" fill="none" xmlns="http://www.w3.org/2000/svg">
<rect width="50" height="48" rx="24" fill="#3F68F9"/>
<g clip-path="url(#clip0_1544_11702)">
<path d="M32.0694 23.103C32.1996 23.1214 32.3249 23.1653 32.4381 23.2322C32.5514 23.299 32.6503 23.3876 32.7292 23.4927C32.8082 23.5979 32.8656 23.7176 32.8983 23.8449C32.9309 23.9723 32.9381 24.1049 32.9194 24.235C32.6688 25.969 31.8561 27.5729 30.6061 28.8006C29.356 30.0282 27.7377 30.8118 25.9994 31.031V32.093C25.9994 32.3582 25.8941 32.6126 25.7066 32.8001C25.519 32.9877 25.2647 33.093 24.9994 33.093C24.7342 33.093 24.4799 32.9877 24.2923 32.8001C24.1048 32.6126 23.9994 32.3582 23.9994 32.093V31.031C22.2614 30.8114 20.6434 30.0277 19.3936 28.8001C18.1438 27.5725 17.3312 25.9688 17.0804 24.235C17.0428 23.9725 17.111 23.7057 17.27 23.4934C17.429 23.2811 17.6659 23.1407 17.9284 23.103C18.191 23.0654 18.4578 23.1335 18.6701 23.2926C18.8824 23.4516 19.0228 23.6885 19.0604 23.951C19.2673 25.3786 19.9814 26.6839 21.0721 27.628C22.1627 28.572 23.557 29.0916 24.9994 29.0916C26.4419 29.0916 27.8362 28.572 28.9268 27.628C30.0175 26.6839 30.7316 25.3786 30.9384 23.951C30.9571 23.821 31.0011 23.6959 31.0681 23.5829C31.1351 23.47 31.2237 23.3713 31.3288 23.2925C31.4339 23.2138 31.5535 23.1565 31.6808 23.124C31.808 23.0915 31.9394 23.0844 32.0694 23.103ZM24.9994 13.093C26.3255 13.093 27.5973 13.6198 28.535 14.5575C29.4727 15.4952 29.9994 16.7669 29.9994 18.093V23.093C29.9994 24.4191 29.4727 25.6909 28.535 26.6286C27.5973 27.5662 26.3255 28.093 24.9994 28.093C23.6734 28.093 22.4016 27.5662 21.4639 26.6286C20.5262 25.6909 19.9994 24.4191 19.9994 23.093V18.093C19.9994 16.7669 20.5262 15.4952 21.4639 14.5575C22.4016 13.6198 23.6734 13.093 24.9994 13.093Z" fill="white"/>
</g>
<defs>
<clipPath id="clip0_1544_11702">
<rect width="30" height="21.814" fill="white" transform="translate(10 13.093)"/>
</clipPath>
</defs>
</svg>
