<svg width="19" height="18" viewBox="0 0 19 18" fill="none" xmlns="http://www.w3.org/2000/svg">
<path d="M7.75 12.4072V12.4071V5.78571C7.75 5.74805 7.759 5.71425 7.77227 5.68851C7.78547 5.66291 7.79991 5.65056 7.80737 5.64583C7.80977 5.64432 7.8115 5.64353 7.8125 5.64314C7.81374 5.64362 7.81628 5.64479 7.8199 5.64736C7.81994 5.64739 7.81997 5.64741 7.82001 5.64744L12.3199 8.86341C12.3199 8.86345 12.32 8.86349 12.3201 8.86353C12.3284 8.86958 12.342 8.88293 12.354 8.90747C12.3662 8.93228 12.3744 8.964 12.3747 8.99914C12.3751 9.03427 12.3676 9.06652 12.3557 9.09218L12.8094 9.3023L12.3557 9.09219C12.3438 9.11777 12.33 9.13214 12.3211 9.13886L7.82133 12.5445C7.81691 12.5479 7.81384 12.5493 7.8125 12.5498C7.81157 12.5495 7.81002 12.5488 7.8079 12.5475C7.80071 12.543 7.78616 12.531 7.77274 12.5053L7.32968 12.7371L7.77274 12.5053C7.75923 12.4795 7.74999 12.4454 7.75 12.4072ZM17.2999 1.27069L17.6762 0.941442L17.2999 1.2707C17.7422 1.77617 18 2.47445 18 3.21429V14.7857C18 15.5255 17.7422 16.2238 17.2999 16.7293C16.8595 17.2326 16.2776 17.5 15.6875 17.5H3.3125C2.72237 17.5 2.14048 17.2326 1.70005 16.7293C1.25776 16.2238 1 15.5255 1 14.7857V3.21429C1 2.47445 1.25776 1.77617 1.70005 1.27069C2.14048 0.767352 2.72237 0.5 3.3125 0.5H15.6875C16.2776 0.5 16.8595 0.767352 17.2999 1.27069ZM1.74297 1.52133C1.34135 1.98033 1.125 2.59015 1.125 3.21429V14.7857C1.125 15.4099 1.34135 16.0197 1.74297 16.4787C2.14646 16.9398 2.70915 17.2143 3.3125 17.2143H15.6875C16.2908 17.2143 16.8535 16.9398 17.257 16.4787C17.6587 16.0197 17.875 15.4099 17.875 14.7857V3.21429C17.875 2.59015 17.6587 1.98032 17.257 1.52133C16.8535 1.0602 16.2908 0.785714 15.6875 0.785714H3.3125C2.70915 0.785714 2.14646 1.0602 1.74297 1.52133Z" fill="#2F9946" stroke="white"/>
</svg>
