<svg width="17" height="18" viewBox="0 0 17 18" fill="none" xmlns="http://www.w3.org/2000/svg">
<path d="M7.25833 2.05416C7.41466 1.87957 7.60604 1.73991 7.81999 1.6443C8.03395 1.54869 8.26566 1.49927 8.5 1.49927C8.73435 1.49927 8.96606 1.54869 9.18001 1.6443C9.39396 1.73991 9.58534 1.87957 9.74167 2.05416L10.325 2.70583C10.4917 2.89207 10.6982 3.03843 10.9291 3.13407C11.1601 3.22971 11.4096 3.27218 11.6592 3.25833L12.5342 3.20999C12.7682 3.19709 13.0023 3.2337 13.2213 3.31743C13.4402 3.40116 13.639 3.53012 13.8047 3.6959C13.9704 3.86168 14.0993 4.06055 14.1829 4.27952C14.2665 4.49848 14.303 4.73263 14.29 4.96666L14.2417 5.84083C14.2279 6.09027 14.2705 6.33961 14.3661 6.5704C14.4617 6.80119 14.608 7.00753 14.7942 7.17416L15.4458 7.75749C15.6206 7.91382 15.7603 8.10525 15.856 8.31928C15.9517 8.53331 16.0012 8.76513 16.0012 8.99958C16.0012 9.23403 15.9517 9.46584 15.856 9.67987C15.7603 9.8939 15.6206 10.0853 15.4458 10.2417L14.7942 10.825C14.6079 10.9917 14.4616 11.1982 14.3659 11.4291C14.2703 11.6601 14.2278 11.9096 14.2417 12.1592L14.29 13.0342C14.3029 13.2682 14.2663 13.5023 14.1826 13.7213C14.0988 13.9402 13.9699 14.139 13.8041 14.3047C13.6383 14.4704 13.4394 14.5993 13.2205 14.6829C13.0015 14.7665 12.7674 14.803 12.5333 14.79L11.6592 14.7417C11.4097 14.7279 11.1604 14.7705 10.9296 14.8661C10.6988 14.9617 10.4925 15.108 10.3258 15.2942L9.7425 15.9458C9.58617 16.1206 9.39474 16.2603 9.18071 16.356C8.96668 16.4517 8.73487 16.5012 8.50042 16.5012C8.26597 16.5012 8.03416 16.4517 7.82012 16.356C7.60609 16.2603 7.41466 16.1206 7.25833 15.9458L6.675 15.2942C6.50828 15.1079 6.30181 14.9616 6.07086 14.8659C5.83992 14.7703 5.59042 14.7278 5.34083 14.7417L4.46583 14.79C4.2318 14.8029 3.99767 14.7663 3.77874 14.6826C3.55981 14.5988 3.36101 14.4699 3.19531 14.3041C3.02961 14.1383 2.90073 13.9394 2.81711 13.7205C2.73349 13.5015 2.69699 13.2674 2.71 13.0333L2.75833 12.1592C2.77206 11.9097 2.72953 11.6604 2.6339 11.4296C2.53826 11.1988 2.39197 10.9925 2.20583 10.8258L1.55417 10.2425C1.37944 10.0862 1.23967 9.89473 1.14397 9.6807C1.04827 9.46667 0.99881 9.23486 0.99881 9.00041C0.99881 8.76596 1.04827 8.53415 1.14397 8.32012C1.23967 8.10609 1.37944 7.91466 1.55417 7.75833L2.20583 7.17499C2.39208 7.00828 2.53844 6.8018 2.63408 6.57085C2.72972 6.33991 2.77219 6.09041 2.75833 5.84083L2.71 4.96583C2.69722 4.73186 2.73392 4.49782 2.8177 4.27899C2.90149 4.06017 3.03047 3.86146 3.19624 3.69586C3.362 3.53025 3.56083 3.40145 3.77973 3.31788C3.99864 3.2343 4.23271 3.19782 4.46667 3.21083L5.34083 3.25916C5.59028 3.27288 5.83962 3.23036 6.07041 3.13472C6.3012 3.03909 6.50754 2.89279 6.67417 2.70666L7.2575 2.05499L7.25833 2.05416Z" stroke="#4B5768" stroke-width="1.5"/>
<path d="M6.41666 6.91666H6.42499V6.92499H6.41666V6.91666ZM10.5833 11.0833H10.5917V11.0917H10.5833V11.0833Z" stroke="#4B5768" stroke-width="2.25" stroke-linejoin="round"/>
<path d="M11 6.5L6 11.5" stroke="#4B5768" stroke-width="1.5" stroke-linecap="round" stroke-linejoin="round"/>
</svg>
