<svg width="24" height="24" viewBox="0 0 24 24" fill="none" xmlns="http://www.w3.org/2000/svg">
<path d="M11.7055 5.16201L11.999 5.37582L12.2931 5.16301C13.4126 4.35304 14.7959 3.99396 16.168 4.15715C17.5401 4.32033 18.8006 4.99383 19.6989 6.04378C20.5972 7.09372 21.0676 8.44324 21.0165 9.82408C20.9654 11.2046 20.3968 12.5154 19.4238 13.496C19.4236 13.4963 19.4233 13.4965 19.4231 13.4967L13.7675 19.1523C13.7675 19.1523 13.7675 19.1523 13.7674 19.1524C13.2986 19.621 12.6629 19.8843 12 19.8843C11.3371 19.8843 10.7013 19.621 10.2325 19.1523L4.57557 13.4964C3.5442 12.4649 2.96478 11.066 2.96478 9.60742C2.96478 8.14873 3.54423 6.7489 4.57549 5.71753C5.50281 4.79053 6.73071 4.22517 8.03795 4.12332C9.34519 4.02147 10.6458 4.38982 11.7055 5.16201Z" stroke="#D74002"/>
</svg>
