<svg width="37" height="37" viewBox="0 0 37 37" fill="none" xmlns="http://www.w3.org/2000/svg">
<rect width="37" height="37" rx="10" fill="#F1F1F1"/>
<path d="M22.0417 16.375V14.9583C22.0417 12.975 20.4833 11.4167 18.5 11.4167C16.5167 11.4167 14.9583 12.975 14.9583 14.9583V16.375C13.7542 16.375 12.8333 17.2958 12.8333 18.5V23.4583C12.8333 24.6625 13.7542 25.5833 14.9583 25.5833H22.0417C23.2458 25.5833 24.1667 24.6625 24.1667 23.4583V18.5C24.1667 17.2958 23.2458 16.375 22.0417 16.375ZM16.375 14.9583C16.375 13.7542 17.2958 12.8333 18.5 12.8333C19.7042 12.8333 20.625 13.7542 20.625 14.9583V16.375H16.375V14.9583ZM19.2083 22.0417C19.2083 22.4667 18.925 22.75 18.5 22.75C18.075 22.75 17.7917 22.4667 17.7917 22.0417V19.9167C17.7917 19.4917 18.075 19.2083 18.5 19.2083C18.925 19.2083 19.2083 19.4917 19.2083 19.9167V22.0417Z" fill="#353535"/>
</svg>
