<svg width="118" height="114" viewBox="0 0 118 114" fill="none" xmlns="http://www.w3.org/2000/svg">
<g clip-path="url(#clip0_1_2202)">
<path d="M6.50815 113.974C5.85153 113.974 5.13345 113.934 4.35389 113.856C3.57678 113.778 2.81869 113.683 2.08401 113.562C1.34934 113.442 0.721502 113.351 0.203425 113.269L0.439048 110.434C0.974686 110.502 1.59765 110.576 2.30793 110.654C3.01821 110.732 3.72215 110.796 4.41975 110.846C5.12125 110.899 5.73104 110.926 6.24912 110.926C7.23551 110.926 7.95311 110.73 8.40192 110.338C8.85072 109.947 9.07463 109.337 9.07366 108.508C9.09283 108.128 8.998 107.752 8.80145 107.427C8.61998 107.158 8.29654 106.941 7.82823 106.777C7.19355 106.568 6.54444 106.407 5.88617 106.295C4.50171 106.034 3.37969 105.713 2.52014 105.332C1.66058 104.951 1.03762 104.413 0.651254 103.717C0.260989 103.024 0.0658569 102.094 0.0658569 100.927C0.0658569 99.5738 0.316602 98.5108 0.818093 97.7386C1.32951 96.9593 2.0888 96.3767 2.97235 96.0854C4.03542 95.7359 5.14963 95.5686 6.26814 95.5907C6.8389 95.5907 7.49162 95.621 8.2263 95.6817C8.96097 95.7424 9.68784 95.8163 10.4069 95.9034C11.124 95.9895 11.7338 96.0874 12.2363 96.197L12.0797 99.0599C11.5616 98.9904 10.9606 98.9254 10.2767 98.8647C9.59271 98.804 8.91804 98.7477 8.25264 98.6958C7.58724 98.644 7.02086 98.618 6.55352 98.618C5.56713 98.618 4.84026 98.7741 4.37292 99.0864C3.90558 99.3986 3.67239 99.9022 3.67337 100.597C3.67337 101.117 3.77581 101.516 3.98363 101.794C4.19144 102.071 4.54122 102.297 5.03442 102.47C5.70249 102.692 6.38267 102.875 7.0716 103.018C7.95563 103.207 8.82672 103.452 9.67955 103.752C10.3097 103.96 10.9001 104.274 11.4255 104.68C11.8708 105.052 12.2072 105.538 12.3987 106.087C12.6255 106.783 12.7309 107.514 12.7104 108.246C12.7104 109.635 12.4636 110.75 11.9699 111.592C11.4878 112.425 10.7372 113.067 9.84199 113.414C8.91707 113.787 7.80579 113.974 6.50815 113.974Z" fill="url(#paint0_linear_1_2202)"/>
<path d="M14.9935 113.687V95.2838H18.44V105.539L19.9708 105.488L22.6695 100.619H26.277L22.9812 106.763L26.4585 113.687H22.8305L20.0279 108.508L18.44 108.585V113.687H14.9935Z" fill="url(#paint1_linear_1_2202)"/>
<path d="M33.3384 113.974C31.8671 113.974 30.6865 113.729 29.7967 113.24C28.9027 112.75 28.2158 111.952 27.8635 110.993C27.4654 109.977 27.2664 108.663 27.2664 107.05C27.2664 105.484 27.4742 104.211 27.8898 103.233C28.2681 102.295 28.9642 101.522 29.8553 101.049C30.7548 100.573 31.9139 100.334 33.3325 100.333C34.7687 100.333 35.9322 100.572 36.823 101.049C37.7135 101.526 38.411 102.299 38.7958 103.235C39.2182 104.214 39.4299 105.487 39.4309 107.053C39.4309 108.667 39.2319 109.981 38.8338 110.996C38.4826 111.957 37.7957 112.757 36.9005 113.248C36.0088 113.731 34.8214 113.973 33.3384 113.974ZM33.3384 111.111C34.0653 111.111 34.6102 110.976 34.9731 110.707C35.3361 110.438 35.5829 110.004 35.7136 109.405C35.8583 108.63 35.9236 107.843 35.9083 107.056C35.9285 106.289 35.8498 105.523 35.6741 104.777C35.519 104.213 35.2595 103.81 34.8956 103.567C34.5316 103.325 34.0126 103.201 33.3384 103.197C32.6808 103.197 32.1661 103.319 31.7944 103.561C31.4227 103.804 31.1593 104.207 31.0041 104.771C30.8277 105.517 30.749 106.283 30.77 107.05C30.754 107.837 30.8192 108.625 30.9646 109.399C31.0944 109.998 31.3383 110.432 31.6964 110.701C32.0544 110.97 32.6018 111.107 33.3384 111.111Z" fill="url(#paint2_linear_1_2202)"/>
<path d="M47.4025 113.974C45.9322 113.974 44.7517 113.729 43.8609 113.24C42.9668 112.75 42.28 111.952 41.9276 110.993C41.5295 109.977 41.3305 108.663 41.3305 107.05C41.3305 105.484 41.5383 104.211 41.954 103.233C42.3322 102.293 43.0308 101.518 43.9253 101.046C44.8258 100.57 45.9849 100.331 47.4025 100.33C48.8387 100.33 50.0022 100.569 50.893 101.046C51.7831 101.524 52.48 102.296 52.8643 103.233C53.2887 104.211 53.5009 105.484 53.5009 107.05C53.5009 108.664 53.3019 109.978 52.9038 110.993C52.5526 111.954 51.8657 112.754 50.9705 113.245C50.0798 113.73 48.8904 113.973 47.4025 113.974ZM47.4025 111.111C48.1284 111.111 48.6733 110.976 49.0373 110.707C49.4012 110.438 49.6475 110.004 49.7763 109.405C49.9217 108.63 49.987 107.843 49.971 107.056C49.9916 106.289 49.9134 105.523 49.7383 104.777C49.5812 104.213 49.3217 103.81 48.9597 103.567C48.5977 103.325 48.0787 103.201 47.4025 103.197C46.7459 103.197 46.2313 103.319 45.8586 103.561C45.4859 103.804 45.2219 104.207 45.0668 104.771C44.8917 105.517 44.8135 106.283 44.8341 107.05C44.8181 107.837 44.8833 108.625 45.0288 109.399C45.1575 109.998 45.4039 110.432 45.7678 110.701C46.1317 110.97 46.6766 111.107 47.4025 111.111Z" fill="url(#paint3_linear_1_2202)"/>
<path d="M55.9655 113.687V95.2838H59.4178V113.687H55.9655Z" fill="url(#paint4_linear_1_2202)"/>
<path d="M65.7738 113.974C64.4244 113.974 63.4083 113.631 62.7253 112.946C62.0423 112.261 61.7009 111.224 61.7009 109.835C61.7009 108.863 61.874 108.103 62.2204 107.556C62.5859 106.994 63.13 106.573 63.7644 106.36C64.5721 106.085 65.4159 105.931 66.2684 105.905L69.434 105.611V104.83C69.434 104.204 69.2783 103.764 68.9671 103.509C68.6559 103.253 68.1973 103.127 67.5914 103.131C67.1036 103.131 66.5455 103.149 65.9172 103.184C65.2889 103.219 64.6664 103.262 64.0498 103.313C63.4351 103.366 62.9029 103.419 62.4531 103.47L62.3507 101.023C62.8004 100.919 63.341 100.811 63.9722 100.697C64.6035 100.583 65.265 100.492 65.9567 100.424C66.6484 100.354 67.2885 100.32 67.8768 100.32C68.9832 100.32 69.9101 100.459 70.6574 100.737C71.3613 100.981 71.9581 101.465 72.3449 102.104C72.7254 102.737 72.9156 103.591 72.9156 104.667V110.629C72.9311 110.747 72.9746 110.859 73.0423 110.956C73.1101 111.054 73.2001 111.133 73.3049 111.189C73.5468 111.324 73.8102 111.416 74.0835 111.462L74.0045 113.856C73.5898 113.874 73.1834 113.883 72.7854 113.883C72.4466 113.887 72.1082 113.861 71.7741 113.805C71.4164 113.764 71.0692 113.658 70.7496 113.492C70.4984 113.36 70.2669 113.194 70.0618 112.997C69.7852 113.119 69.4135 113.257 68.9466 113.414C68.4499 113.578 67.9429 113.708 67.429 113.805C66.8838 113.913 66.3296 113.97 65.7738 113.974ZM66.6036 111.397C66.9519 111.395 67.2993 111.36 67.6412 111.293C67.9866 111.228 68.3286 111.145 68.6656 111.045C68.9266 110.971 69.1823 110.88 69.431 110.772V107.778L66.7836 108.013C66.2128 108.064 65.8021 108.233 65.5513 108.519C65.3011 108.813 65.1752 109.209 65.1752 109.731C65.1752 110.252 65.2923 110.659 65.525 110.954C65.7577 111.249 66.1192 111.397 66.6036 111.397Z" fill="url(#paint5_linear_1_2202)"/>
<path d="M75.8675 113.687V109.835H79.4677V113.687H75.8675Z" fill="url(#paint6_linear_1_2202)"/>
<path d="M82.2249 113.687V100.621H85.6758V101.45C85.9983 101.253 86.3366 101.083 86.6871 100.942C87.0976 100.773 87.5179 100.63 87.9457 100.512C88.3641 100.394 88.7962 100.333 89.2307 100.33C90.4405 100.33 91.3791 100.543 92.0464 100.969C92.7138 101.394 93.185 102.088 93.4601 103.05C93.7363 104.014 93.8748 105.302 93.8758 106.916V113.684H90.3985V107.101C90.4118 106.374 90.3594 105.646 90.2419 104.928C90.138 104.381 89.939 103.987 89.6463 103.743C89.3536 103.5 88.9145 103.379 88.3482 103.379C88.0217 103.38 87.696 103.411 87.3749 103.47C87.0491 103.528 86.7281 103.61 86.4149 103.717C86.1604 103.801 85.9132 103.905 85.6758 104.03V113.687H82.2249Z" fill="url(#paint7_linear_1_2202)"/>
<path d="M101.842 113.974C100.406 113.974 99.2688 113.729 98.4287 113.24C97.5816 112.743 96.9413 111.957 96.6257 111.026C96.2628 110.037 96.0813 108.796 96.0813 107.304C96.0813 105.69 96.3101 104.371 96.7677 103.347C97.1725 102.388 97.882 101.589 98.7858 101.076C99.6639 100.581 100.754 100.333 102.055 100.333C103.975 100.333 105.424 100.819 106.4 101.791C107.377 102.763 107.865 104.298 107.864 106.398L107.713 108.326H99.5571C99.5747 109.297 99.7737 110.026 100.154 110.512C100.535 110.997 101.192 111.242 102.127 111.246C102.663 111.246 103.248 111.233 103.883 111.208C104.518 111.182 105.153 111.152 105.786 111.117C106.416 111.081 106.957 111.048 107.407 111.012L107.485 113.433C107.052 113.502 106.507 113.58 105.85 113.667C105.194 113.754 104.514 113.828 103.813 113.888C103.12 113.945 102.463 113.974 101.842 113.974ZM99.5571 106.112H104.41C104.41 104.937 104.224 104.113 103.852 103.639C103.481 103.165 102.88 102.931 102.049 102.936C101.236 102.936 100.617 103.181 100.194 103.67C99.7703 104.159 99.5581 104.973 99.5571 106.112Z" fill="url(#paint8_linear_1_2202)"/>
<path d="M114.66 114C113.708 114 112.938 113.861 112.351 113.583C112.055 113.44 111.79 113.238 111.574 112.99C111.358 112.742 111.194 112.452 111.092 112.138C110.841 111.453 110.715 110.495 110.715 109.262V103.506H109.184V100.619H110.715V97.1572H114.167V100.619H117.488V103.506H114.167V108.351C114.158 108.882 114.188 109.413 114.258 109.939C114.318 110.321 114.452 110.589 114.66 110.745C114.868 110.901 115.188 110.979 115.62 110.98C115.74 110.98 115.922 110.971 116.165 110.954L116.897 110.902C117.139 110.885 117.338 110.867 117.494 110.849L117.598 113.639C117.182 113.708 116.685 113.786 116.106 113.872C115.628 113.949 115.145 113.992 114.66 114Z" fill="url(#paint9_linear_1_2202)"/>
<path d="M117.519 45.2195L85.1753 91.9071C72.0419 79.9548 46.7601 83.8322 43.0472 84.4826C63.5156 72.8474 83.2728 83.6854 83.2728 83.6854L107.42 48.1558C104.64 43.0172 92.6391 40.3745 92.6391 40.3745L93.0782 36.8509C103.615 36.4105 117.519 45.2195 117.519 45.2195Z" fill="url(#paint10_linear_1_2202)"/>
<path d="M93.7368 16.6637L84.1509 72.6741C84.1509 72.6741 57.5153 70.0314 43.0472 84.4826C42.7472 84.6514 42.4486 84.8261 42.1486 85.0067C42.1486 85.0067 51.515 67.3887 78.8823 66.2142L86.0534 23.197C86.0534 23.197 67.1744 19.9671 51.8809 28.2622C51.8809 28.2622 71.3453 13.1401 93.7368 16.6637Z" fill="url(#paint11_linear_1_2202)"/>
<path d="M80.4921 28.6292L79.9067 34.0614C79.9067 34.0614 64.2473 33.0336 52.8321 39.3468C52.9931 39.1999 63.2127 29.51 80.4921 28.6292Z" fill="url(#paint12_linear_1_2202)"/>
<path d="M78.2969 40.9618L77.7115 46.394C77.7115 46.394 62.0521 45.3663 50.6368 51.6794C50.7978 51.5326 61.0174 41.8427 78.2969 40.9618Z" fill="url(#paint13_linear_1_2202)"/>
<path d="M75.9553 53.4412L75.3699 58.8734C75.3699 58.8734 59.7105 57.8457 48.2953 64.1588C48.4563 64.0119 58.6758 54.3221 75.9553 53.4412Z" fill="url(#paint14_linear_1_2202)"/>
<path d="M70.2477 0.734131C45.2219 20.848 45.0756 51.6794 45.0756 51.6794C31.1724 36.2637 20.3426 34.0615 20.3426 34.0615C39.807 50.3581 42.1486 85.1536 42.1486 85.1536C23.4159 35.9701 0 25.9865 0 25.9865C25.3184 21.4352 39.5143 38.4659 39.5143 38.4659C48.2953 6.01952 70.2477 0.734131 70.2477 0.734131Z" fill="url(#paint15_linear_1_2202)"/>
<path d="M31.0993 17.7648C35.9893 17.7648 39.9534 13.788 39.9534 8.88239C39.9534 3.97678 35.9893 0 31.0993 0C26.2092 0 22.2451 3.97678 22.2451 8.88239C22.2451 13.788 26.2092 17.7648 31.0993 17.7648Z" fill="url(#paint16_linear_1_2202)"/>
</g>
<defs>
<linearGradient id="paint0_linear_1_2202" x1="0.0731744" y1="104.784" x2="12.7104" y2="104.784" gradientUnits="userSpaceOnUse">
<stop stop-color="#45B049"/>
<stop offset="0.99" stop-color="#2B9546"/>
</linearGradient>
<linearGradient id="paint1_linear_1_2202" x1="14.9935" y1="104.485" x2="26.4629" y2="104.485" gradientUnits="userSpaceOnUse">
<stop stop-color="#45B049"/>
<stop offset="0.99" stop-color="#2B9546"/>
</linearGradient>
<linearGradient id="paint2_linear_1_2202" x1="27.2664" y1="107.154" x2="39.4368" y2="107.154" gradientUnits="userSpaceOnUse">
<stop stop-color="#45B049"/>
<stop offset="0.99" stop-color="#2B9546"/>
</linearGradient>
<linearGradient id="paint3_linear_1_2202" x1="41.3305" y1="107.154" x2="53.5009" y2="107.154" gradientUnits="userSpaceOnUse">
<stop stop-color="#45B049"/>
<stop offset="0.99" stop-color="#2B9546"/>
</linearGradient>
<linearGradient id="paint4_linear_1_2202" x1="55.9655" y1="104.485" x2="59.4164" y2="104.485" gradientUnits="userSpaceOnUse">
<stop stop-color="#45B049"/>
<stop offset="0.99" stop-color="#2B9546"/>
</linearGradient>
<linearGradient id="paint5_linear_1_2202" x1="61.6994" y1="107.154" x2="74.0776" y2="107.154" gradientUnits="userSpaceOnUse">
<stop stop-color="#45B049"/>
<stop offset="0.99" stop-color="#2B9546"/>
</linearGradient>
<linearGradient id="paint6_linear_1_2202" x1="75.8675" y1="111.761" x2="79.4735" y2="111.761" gradientUnits="userSpaceOnUse">
<stop stop-color="#45B049"/>
<stop offset="0.99" stop-color="#2B9546"/>
</linearGradient>
<linearGradient id="paint7_linear_1_2202" x1="82.2249" y1="107.01" x2="93.8758" y2="107.01" gradientUnits="userSpaceOnUse">
<stop stop-color="#45B049"/>
<stop offset="0.99" stop-color="#2B9546"/>
</linearGradient>
<linearGradient id="paint8_linear_1_2202" x1="96.0813" y1="107.154" x2="107.861" y2="107.154" gradientUnits="userSpaceOnUse">
<stop stop-color="#45B049"/>
<stop offset="0.99" stop-color="#2B9546"/>
</linearGradient>
<linearGradient id="paint9_linear_1_2202" x1="109.184" y1="105.579" x2="117.592" y2="105.579" gradientUnits="userSpaceOnUse">
<stop stop-color="#45B049"/>
<stop offset="0.99" stop-color="#2B9546"/>
</linearGradient>
<linearGradient id="paint10_linear_1_2202" x1="43.0472" y1="64.3717" x2="117.519" y2="64.3717" gradientUnits="userSpaceOnUse">
<stop stop-color="#45B049"/>
<stop offset="0.99" stop-color="#2B9546"/>
</linearGradient>
<linearGradient id="paint11_linear_1_2202" x1="42.1486" y1="50.5695" x2="93.7368" y2="50.5695" gradientUnits="userSpaceOnUse">
<stop stop-color="#45B049"/>
<stop offset="0.99" stop-color="#2B9546"/>
</linearGradient>
<linearGradient id="paint12_linear_1_2202" x1="52.8336" y1="33.9865" x2="80.4921" y2="33.9865" gradientUnits="userSpaceOnUse">
<stop stop-color="#45B049"/>
<stop offset="0.99" stop-color="#2B9546"/>
</linearGradient>
<linearGradient id="paint13_linear_1_2202" x1="50.6383" y1="46.3191" x2="78.2969" y2="46.3191" gradientUnits="userSpaceOnUse">
<stop stop-color="#45B049"/>
<stop offset="0.99" stop-color="#2B9546"/>
</linearGradient>
<linearGradient id="paint14_linear_1_2202" x1="48.2968" y1="58.7985" x2="75.9553" y2="58.7985" gradientUnits="userSpaceOnUse">
<stop stop-color="#45B049"/>
<stop offset="0.99" stop-color="#2B9546"/>
</linearGradient>
<linearGradient id="paint15_linear_1_2202" x1="0" y1="42.9438" x2="70.2477" y2="42.9438" gradientUnits="userSpaceOnUse">
<stop stop-color="#3F84C5"/>
<stop offset="0.99" stop-color="#355DAA"/>
</linearGradient>
<linearGradient id="paint16_linear_1_2202" x1="22.2451" y1="8.88239" x2="39.9534" y2="8.88239" gradientUnits="userSpaceOnUse">
<stop stop-color="#3F84C5"/>
<stop offset="0.99" stop-color="#355DAA"/>
</linearGradient>
<clipPath id="clip0_1_2202">
<rect width="118" height="114" fill="white"/>
</clipPath>
</defs>
</svg>
