<svg width="33" height="26" viewBox="0 0 33 26" fill="none" xmlns="http://www.w3.org/2000/svg">
<path d="M12.0267 2.2085H20.9405V18.4423H12.0267V2.2085Z" fill="#FF5F00"/>
<path d="M12.5927 10.3254C12.5927 7.02705 14.1208 4.10147 16.4694 2.20843C14.7434 0.831739 12.5645 0 10.1875 0C4.55593 0 0 4.61768 0 10.3254C0 16.033 4.55593 20.6508 10.1873 20.6508C12.5644 20.6508 14.7433 19.8191 16.4694 18.4422C14.1208 16.5779 12.5927 13.6237 12.5927 10.3254Z" fill="#EB001B"/>
<path d="M32.9673 10.3254C32.9673 16.033 28.4113 20.6508 22.7799 20.6508C20.4029 20.6508 18.224 19.8191 16.4978 18.4422C18.8748 16.5493 20.3747 13.6237 20.3747 10.3254C20.3747 7.02705 18.8465 4.10147 16.4978 2.20843C18.2239 0.831739 20.4029 0 22.7799 0C28.4113 0 32.9673 4.64642 32.9673 10.3254Z" fill="#F79E1B"/>
</svg>
