<svg width="25" height="24" viewBox="0 0 25 24" fill="none" xmlns="http://www.w3.org/2000/svg">
<path d="M12.56 10.87C12.46 10.86 12.34 10.86 12.23 10.87C9.84996 10.79 7.95996 8.84 7.95996 6.44C7.95996 3.99 9.93996 2 12.4 2C14.85 2 16.84 3.99 16.84 6.44C16.83 8.84 14.94 10.79 12.56 10.87Z" stroke="#484C52" stroke-width="1.5" stroke-linecap="round" stroke-linejoin="round"/>
<path d="M7.55993 14.56C5.13993 16.18 5.13993 18.82 7.55993 20.43C10.3099 22.27 14.8199 22.27 17.5699 20.43C19.9899 18.81 19.9899 16.17 17.5699 14.56C14.8299 12.73 10.3199 12.73 7.55993 14.56Z" stroke="#484C52" stroke-width="1.5" stroke-linecap="round" stroke-linejoin="round"/>
</svg>
