<svg width="25" height="24" viewBox="0 0 25 24" fill="none" xmlns="http://www.w3.org/2000/svg">
<path d="M12.22 2.91003C8.90998 2.91003 6.21998 5.60003 6.21998 8.91003V11.8C6.21998 12.41 5.95998 13.34 5.64998 13.86L4.49998 15.77C3.78998 16.95 4.27998 18.26 5.57998 18.7C9.88998 20.14 14.54 20.14 18.85 18.7C20.06 18.3 20.59 16.87 19.93 15.77L18.78 13.86C18.48 13.34 18.22 12.41 18.22 11.8V8.91003C18.22 5.61003 15.52 2.91003 12.22 2.91003Z" stroke="#484C52" stroke-width="1.5" stroke-miterlimit="10" stroke-linecap="round"/>
<path d="M14.0699 3.19994C13.7599 3.10994 13.4399 3.03994 13.1099 2.99994C12.1499 2.87994 11.2299 2.94994 10.3699 3.19994C10.6599 2.45994 11.3799 1.93994 12.2199 1.93994C13.0599 1.93994 13.7799 2.45994 14.0699 3.19994Z" stroke="#484C52" stroke-width="1.5" stroke-miterlimit="10" stroke-linecap="round" stroke-linejoin="round"/>
<path d="M15.22 19.0601C15.22 20.7101 13.87 22.0601 12.22 22.0601C11.4 22.0601 10.64 21.7201 10.1 21.1801C9.55997 20.6401 9.21997 19.8801 9.21997 19.0601" stroke="#484C52" stroke-width="1.5" stroke-miterlimit="10"/>
<circle cx="18" cy="5" r="3.5" fill="#FF0000" stroke="white"/>
</svg>
