<svg width="25" height="24" viewBox="0 0 25 24" fill="none" xmlns="http://www.w3.org/2000/svg">
<path d="M5.79993 10H7.79993C9.79993 10 10.7999 9 10.7999 7V5C10.7999 3 9.79993 2 7.79993 2H5.79993C3.79993 2 2.79993 3 2.79993 5V7C2.79993 9 3.79993 10 5.79993 10Z" stroke="#484C52" stroke-width="1.5" stroke-miterlimit="10" stroke-linecap="round" stroke-linejoin="round"/>
<path d="M17.7999 10H19.7999C21.7999 10 22.7999 9 22.7999 7V5C22.7999 3 21.7999 2 19.7999 2H17.7999C15.7999 2 14.7999 3 14.7999 5V7C14.7999 9 15.7999 10 17.7999 10Z" stroke="#484C52" stroke-width="1.5" stroke-miterlimit="10" stroke-linecap="round" stroke-linejoin="round"/>
<path d="M17.7999 22H19.7999C21.7999 22 22.7999 21 22.7999 19V17C22.7999 15 21.7999 14 19.7999 14H17.7999C15.7999 14 14.7999 15 14.7999 17V19C14.7999 21 15.7999 22 17.7999 22Z" stroke="#484C52" stroke-width="1.5" stroke-miterlimit="10" stroke-linecap="round" stroke-linejoin="round"/>
<path d="M5.79993 22H7.79993C9.79993 22 10.7999 21 10.7999 19V17C10.7999 15 9.79993 14 7.79993 14H5.79993C3.79993 14 2.79993 15 2.79993 17V19C2.79993 21 3.79993 22 5.79993 22Z" stroke="#484C52" stroke-width="1.5" stroke-miterlimit="10" stroke-linecap="round" stroke-linejoin="round"/>
</svg>
