<svg width="18" height="12" viewBox="0 0 18 12" fill="none" xmlns="http://www.w3.org/2000/svg">
<path d="M1.565 6.4071C1.50093 6.33063 1.42225 6.26772 1.33357 6.22203C1.24489 6.17635 1.14799 6.14882 1.04853 6.14105C0.949078 6.13328 0.849074 6.14543 0.754373 6.17678C0.659672 6.20814 0.572178 6.25807 0.497013 6.32366C0.421848 6.38924 0.360523 6.46916 0.316626 6.55874C0.27273 6.64832 0.247145 6.74576 0.24137 6.84535C0.235595 6.94494 0.249745 7.04468 0.282993 7.13873C0.31624 7.23279 0.367916 7.31926 0.434996 7.3931L1.565 6.4071ZM4.143 10.5001L3.578 10.9931C3.64839 11.0737 3.73524 11.1384 3.83269 11.1827C3.93015 11.227 4.03595 11.2499 4.143 11.2499C4.25004 11.2499 4.35585 11.227 4.4533 11.1827C4.55075 11.1384 4.6376 11.0737 4.708 10.9931L4.143 10.5001ZM12.565 1.9931C12.6321 1.91926 12.6838 1.83279 12.717 1.73873C12.7502 1.64468 12.7644 1.54494 12.7586 1.44535C12.7528 1.34576 12.7273 1.24832 12.6834 1.15874C12.6395 1.06917 12.5781 0.989243 12.503 0.923656C12.4278 0.85807 12.3403 0.808137 12.2456 0.776782C12.1509 0.745426 12.0509 0.733278 11.9515 0.741048C11.852 0.748818 11.7551 0.776351 11.6664 0.822034C11.5777 0.867717 11.4991 0.930633 11.435 1.0071L12.565 1.9931ZM7.506 5.5071C7.37992 5.65757 7.31787 5.85148 7.33316 6.04719C7.34845 6.2429 7.43987 6.42482 7.58778 6.55388C7.7357 6.68295 7.92832 6.74888 8.1243 6.73751C8.32028 6.72615 8.50399 6.6384 8.636 6.4931L7.506 5.5071ZM6.672 8.7431C6.73908 8.66926 6.79075 8.58279 6.824 8.48873C6.85725 8.39468 6.8714 8.29494 6.86562 8.19535C6.85985 8.09576 6.83426 7.99832 6.79037 7.90874C6.74647 7.81917 6.68514 7.73924 6.60998 7.67366C6.53481 7.60807 6.44732 7.55814 6.35262 7.52678C6.25792 7.49543 6.15791 7.48328 6.05846 7.49105C5.95901 7.49882 5.8621 7.52635 5.77342 7.57203C5.68474 7.61772 5.60606 7.68063 5.542 7.7571L6.672 8.7431ZM0.434996 7.3931L3.578 10.9931L4.708 10.0071L1.565 6.4071L0.434996 7.3931ZM4.708 10.9931L6.672 8.7431L5.542 7.7571L3.578 10.0071L4.708 10.9931ZM8.636 6.4931L10.601 4.2431L9.471 3.2571L7.506 5.5071L8.636 6.4931ZM10.601 4.2431L12.565 1.9931L11.435 1.0071L9.471 3.2571L10.601 4.2431Z" fill="#484C52"/>
<path d="M17 1.56299L12.714 6.06299M8 9.99999L8.429 10.563L10.572 8.31299" stroke="#484C52" stroke-width="1.5" stroke-linecap="round" stroke-linejoin="round"/>
</svg>
