<svg width="16" height="12" viewBox="0 0 16 12" fill="none" xmlns="http://www.w3.org/2000/svg">
<path fill-rule="evenodd" clip-rule="evenodd" d="M2.1441 5.99996C2.52919 6.53106 3.31845 7.5318 4.35774 8.4031C5.43534 9.30652 6.69716 9.99996 7.99995 9.99996C9.30274 9.99996 10.5646 9.30652 11.6422 8.4031C12.6814 7.5318 13.4707 6.53106 13.8558 5.99996C13.4707 5.46886 12.6814 4.46812 11.6422 3.59682C10.5646 2.69339 9.30273 1.99996 7.99995 1.99996C6.69716 1.99996 5.43534 2.69339 4.35774 3.59682C3.31845 4.46812 2.52919 5.46886 2.1441 5.99996ZM3.50113 2.57506C4.67561 1.59041 6.23747 0.666626 7.99995 0.666626C9.76242 0.666626 11.3243 1.59041 12.4988 2.57506C13.6846 3.56925 14.5621 4.69805 14.9675 5.26196C15.2864 5.70554 15.2864 6.29438 14.9675 6.73796C14.5621 7.30187 13.6846 8.43067 12.4988 9.42486C11.3243 10.4095 9.76242 11.3333 7.99995 11.3333C6.23747 11.3333 4.67561 10.4095 3.50113 9.42486C2.31525 8.43067 1.43782 7.30187 1.0324 6.73796C0.713485 6.29438 0.713485 5.70554 1.0324 5.26196C1.43782 4.69805 2.31525 3.56925 3.50113 2.57506Z" fill="#4B5768"/>
<path fill-rule="evenodd" clip-rule="evenodd" d="M7.99995 7.33329C8.73633 7.33329 9.33328 6.73634 9.33328 5.99996C9.33328 5.26358 8.73633 4.66663 7.99995 4.66663C7.26357 4.66663 6.66661 5.26358 6.66661 5.99996C6.66661 6.73634 7.26357 7.33329 7.99995 7.33329ZM7.99995 8.66663C9.47271 8.66663 10.6666 7.47272 10.6666 5.99996C10.6666 4.5272 9.47271 3.33329 7.99995 3.33329C6.52719 3.33329 5.33328 4.5272 5.33328 5.99996C5.33328 7.47272 6.52719 8.66663 7.99995 8.66663Z" fill="#4B5768"/>
</svg>
