<svg width="26" height="30" viewBox="0 0 26 30" fill="none" xmlns="http://www.w3.org/2000/svg">
<g clip-path="url(#clip0_59_5954)">
<path d="M22.0561 2.33513C20.6409 0.757445 18.0828 0.0810547 14.8101 0.0810547H5.31201C4.98822 0.0810664 4.67504 0.194055 4.4288 0.399707C4.18256 0.605359 4.01939 0.890185 3.96865 1.20298L0.0138029 25.7361C-0.0648065 26.2199 0.318186 26.658 0.819498 26.658H6.68331L8.15597 17.5218L8.11026 17.8079C8.21518 17.1621 8.77987 16.6858 9.44855 16.6858H12.235C17.709 16.6858 21.9953 14.5111 23.2473 8.22009C23.2845 8.03403 23.3167 7.85294 23.3445 7.67602C23.1865 7.59417 23.1865 7.59417 23.3445 7.67602C23.7174 5.35082 23.342 3.76807 22.0561 2.33513Z" fill="#27346A"/>
<path d="M10.3997 6.83841C10.56 6.76375 10.7353 6.72505 10.9129 6.72516H18.3592C19.241 6.72516 20.0635 6.78129 20.815 6.8996C21.0253 6.9324 21.2345 6.97155 21.4424 7.01701C21.7369 7.08059 22.0281 7.1584 22.3148 7.25016C22.6843 7.37086 23.0284 7.51142 23.3446 7.67602C23.7174 5.34993 23.342 3.76807 22.0561 2.33513C20.6401 0.757445 18.0828 0.0810547 14.8101 0.0810547H5.3112C4.64241 0.0810547 4.07346 0.55728 3.96865 1.20298L0.0138035 25.7352C-0.0648059 26.2198 0.318186 26.6573 0.818686 26.6573H6.68331L9.73862 7.70662C9.76866 7.52035 9.84452 7.34401 9.95968 7.19277C10.0748 7.04153 10.2258 6.91992 10.3997 6.83841Z" fill="#27346A"/>
<path d="M23.2474 8.22034C21.9953 14.5104 17.7092 16.686 12.2351 16.686H9.44778C8.77909 16.686 8.2143 17.1623 8.1104 17.8081L6.27832 29.1679C6.20986 29.5913 6.54461 29.9749 6.98255 29.9749H11.9256C12.2088 29.9748 12.4826 29.876 12.6979 29.696C12.9131 29.5161 13.0557 29.267 13.1 28.9935L13.1481 28.7471L14.0797 22.972L14.1398 22.6528C14.184 22.3793 14.3266 22.1302 14.5418 21.9503C14.7571 21.7704 15.0309 21.6715 15.314 21.6714H16.0538C20.8422 21.6714 24.5916 19.7687 25.6872 14.2657C26.1446 11.9661 25.9079 10.0461 24.6981 8.69746C24.3312 8.28898 23.8754 7.95163 23.3446 7.67627C23.3158 7.85408 23.2847 8.03428 23.2474 8.22034Z" fill="#2790C3"/>
<path d="M22.0342 7.16507C21.839 7.10931 21.6419 7.05994 21.4433 7.01705C21.2354 6.97234 21.0262 6.93345 20.8159 6.90043C20.0636 6.78133 19.2417 6.7251 18.3591 6.7251H10.9137C10.736 6.72471 10.5605 6.76373 10.4005 6.83924C10.2265 6.9205 10.0753 7.04204 9.96008 7.19332C9.84487 7.34461 9.7691 7.52107 9.73933 7.70745L8.15679 17.5218L8.11108 17.8079C8.21519 17.1621 8.77987 16.6858 9.44866 16.6858H12.2359C17.71 16.6858 21.9961 14.5111 23.2482 8.22013C23.2854 8.03407 23.3167 7.85378 23.3455 7.67606C23.0284 7.51235 22.6852 7.3709 22.3156 7.25099C22.2224 7.22076 22.1286 7.19211 22.0343 7.16507" fill="#1F264F"/>
</g>
<defs>
<clipPath id="clip0_59_5954">
<rect width="26" height="30" fill="white"/>
</clipPath>
</defs>
</svg>
