<svg width="16" height="15" viewBox="0 0 16 15" fill="none" xmlns="http://www.w3.org/2000/svg">
<path d="M6.765 4.576C6.68931 4.5287 6.60235 4.50251 6.51312 4.50017C6.4239 4.49783 6.33568 4.51941 6.25762 4.56268C6.17955 4.60594 6.11449 4.66932 6.06919 4.74622C6.02389 4.82312 6 4.91075 6 5V10.15C5.99999 10.2404 6.02446 10.3291 6.07083 10.4066C6.1172 10.4842 6.18372 10.5477 6.26332 10.5905C6.34293 10.6333 6.43263 10.6537 6.52291 10.6496C6.61318 10.6454 6.70065 10.6169 6.776 10.567L10.776 7.918C10.8456 7.87184 10.9026 7.80897 10.9417 7.73513C10.9808 7.66128 11.0007 7.57882 10.9997 7.49528C10.9987 7.41173 10.9768 7.32977 10.936 7.25688C10.8952 7.18399 10.8367 7.12249 10.766 7.078L6.765 4.576ZM2.5 0.5C1.83696 0.5 1.20107 0.763392 0.732233 1.23223C0.263392 1.70107 0 2.33696 0 3V12C0 12.663 0.263392 13.2989 0.732233 13.7678C1.20107 14.2366 1.83696 14.5 2.5 14.5H13.5C14.163 14.5 14.7989 14.2366 15.2678 13.7678C15.7366 13.2989 16 12.663 16 12V3C16 2.33696 15.7366 1.70107 15.2678 1.23223C14.7989 0.763392 14.163 0.5 13.5 0.5H2.5ZM1 3C1 2.60218 1.15804 2.22064 1.43934 1.93934C1.72064 1.65804 2.10218 1.5 2.5 1.5H13.5C13.8978 1.5 14.2794 1.65804 14.5607 1.93934C14.842 2.22064 15 2.60218 15 3V12C15 12.3978 14.842 12.7794 14.5607 13.0607C14.2794 13.342 13.8978 13.5 13.5 13.5H2.5C2.10218 13.5 1.72064 13.342 1.43934 13.0607C1.15804 12.7794 1 12.3978 1 12V3Z" fill="#353535"/>
</svg>
