<svg width="20" height="18" viewBox="0 0 20 18" fill="none" xmlns="http://www.w3.org/2000/svg">
<path fill-rule="evenodd" clip-rule="evenodd" d="M2.222 2.364C3.23359 1.35275 4.57307 0.736022 5.99911 0.624916C7.42515 0.513811 8.84399 0.915637 10 1.758C11.2212 0.874424 12.7302 0.482715 14.227 0.660731C15.7239 0.838746 17.0989 1.57345 18.0788 2.71881C19.0588 3.86417 19.5719 5.33632 19.5161 6.84265C19.4604 8.34898 18.8399 9.77919 17.778 10.849L12.121 16.506C11.5584 17.0684 10.7955 17.3844 10 17.3844C9.20451 17.3844 8.44158 17.0684 7.879 16.506L2.222 10.85C1.09687 9.72479 0.464783 8.19873 0.464783 6.6075C0.464783 5.01627 1.09687 3.48921 2.222 2.364Z" fill="#D74002"/>
</svg>
