<svg width="17" height="14" viewBox="0 0 17 14" fill="none" xmlns="http://www.w3.org/2000/svg">
<path d="M10.1667 7.20834C9.5486 7.20834 8.94441 7.02507 8.43051 6.68169C7.91661 6.33831 7.51607 5.85025 7.27954 5.27923C7.04302 4.70821 6.98113 4.07988 7.10171 3.47369C7.22229 2.8675 7.51992 2.31068 7.95696 1.87364C8.394 1.4366 8.95082 1.13897 9.55701 1.01839C10.1632 0.897812 10.7915 0.959698 11.3626 1.19622C11.9336 1.43275 12.4216 1.83328 12.765 2.34719C13.1084 2.86109 13.2917 3.46528 13.2917 4.08334C13.2917 4.91215 12.9624 5.707 12.3764 6.29305C11.7903 6.8791 10.9955 7.20834 10.1667 7.20834ZM10.1667 2.20834C9.79583 2.20834 9.43331 2.31831 9.12497 2.52434C8.81663 2.73037 8.57631 3.0232 8.43439 3.36581C8.29248 3.70842 8.25535 4.08542 8.32769 4.44914C8.40004 4.81285 8.57862 5.14695 8.84084 5.40917C9.10306 5.67139 9.43716 5.84997 9.80087 5.92232C10.1646 5.99466 10.5416 5.95753 10.8842 5.81562C11.2268 5.6737 11.5196 5.43338 11.7257 5.12504C11.9317 4.8167 12.0417 4.45418 12.0417 4.08334C12.0417 3.58606 11.8441 3.10915 11.4925 2.75752C11.1409 2.40589 10.6639 2.20834 10.1667 2.20834ZM16 13.0417C15.8349 13.0395 15.6772 12.973 15.5604 12.8562C15.4437 12.7395 15.3772 12.5818 15.375 12.4167C15.375 10.7917 14.4917 9.70834 10.1667 9.70834C5.84167 9.70834 4.95833 10.7917 4.95833 12.4167C4.95833 12.5824 4.89249 12.7414 4.77528 12.8586C4.65806 12.9758 4.49909 13.0417 4.33333 13.0417C4.16757 13.0417 4.0086 12.9758 3.89139 12.8586C3.77418 12.7414 3.70833 12.5824 3.70833 12.4167C3.70833 8.45834 8.23333 8.45834 10.1667 8.45834C12.1 8.45834 16.625 8.45834 16.625 12.4167C16.6228 12.5818 16.5563 12.7395 16.4396 12.8562C16.3228 12.973 16.1651 13.0395 16 13.0417ZM5.43333 7.88335H5.16667C4.50363 7.81925 3.8932 7.49439 3.46968 6.98023C3.04616 6.46606 2.84424 5.80472 2.90833 5.14168C2.97243 4.47864 3.29729 3.86821 3.81145 3.44469C4.32561 3.02117 4.98696 2.81925 5.65 2.88334C5.73502 2.887 5.81839 2.90798 5.89501 2.94499C5.97164 2.982 6.0399 3.03427 6.09561 3.0986C6.15132 3.16292 6.1933 3.23794 6.219 3.31907C6.24469 3.40019 6.25354 3.4857 6.24502 3.57037C6.2365 3.65504 6.21077 3.73707 6.16943 3.81145C6.12808 3.88582 6.07198 3.95097 6.00457 4.0029C5.93716 4.05483 5.85985 4.09244 5.77738 4.11344C5.69492 4.13444 5.60904 4.13838 5.525 4.12501C5.36233 4.10879 5.19805 4.12552 5.04199 4.1742C4.88592 4.22288 4.74127 4.30252 4.61667 4.40834C4.49011 4.51043 4.38514 4.63669 4.30788 4.77976C4.23062 4.92284 4.18261 5.07986 4.16667 5.24168C4.14944 5.40552 4.16498 5.57116 4.2124 5.72894C4.25982 5.88672 4.33817 6.03348 4.44287 6.16068C4.54758 6.28788 4.67655 6.39297 4.82228 6.46982C4.968 6.54668 5.12756 6.59377 5.29167 6.60834C5.56295 6.63155 5.83454 6.5673 6.06667 6.42501C6.20812 6.33771 6.37845 6.31018 6.5402 6.34846C6.70195 6.38675 6.84187 6.48773 6.92917 6.62918C7.01647 6.77063 7.044 6.94096 7.00571 7.10271C6.96742 7.26446 6.86645 7.40438 6.725 7.49168C6.3385 7.73819 5.89165 7.87369 5.43333 7.88335ZM1 12.4167C0.834911 12.4145 0.677191 12.348 0.560445 12.2312C0.443699 12.1145 0.377158 11.9568 0.375 11.7917C0.375 9.54168 0.975 8.04168 3.91667 8.04168C4.08243 8.04168 4.2414 8.10753 4.35861 8.22474C4.47582 8.34195 4.54167 8.50092 4.54167 8.66668C4.54167 8.83244 4.47582 8.99141 4.35861 9.10862C4.2414 9.22583 4.08243 9.29168 3.91667 9.29168C1.95833 9.29168 1.625 9.91668 1.625 11.7917C1.62284 11.9568 1.5563 12.1145 1.43956 12.2312C1.32281 12.348 1.16509 12.4145 1 12.4167Z" fill="#4B5768"/>
</svg>
