<svg width="15" height="14" viewBox="0 0 15 14" fill="none" xmlns="http://www.w3.org/2000/svg">
<path d="M7.5 0C3.63359 0 0.5 3.13359 0.5 7C0.5 10.8664 3.63359 14 7.5 14C11.3664 14 14.5 10.8664 14.5 7C14.5 3.13359 11.3664 0 7.5 0ZM7.5 12.8324C4.27891 12.8324 1.66758 10.2211 1.66758 7C1.66758 3.77891 4.27891 1.16758 7.5 1.16758C10.7211 1.16758 13.3324 3.77891 13.3324 7C13.3324 10.2211 10.7211 12.8324 7.5 12.8324ZM8.08242 2.33242H6.91484V7L9.53984 9.625L10.4148 8.75L8.08242 6.41758V2.33242Z" fill="#4B5768"/>
</svg>
