<svg width="50" height="48" viewBox="0 0 50 48" fill="none" xmlns="http://www.w3.org/2000/svg">
<rect width="50" height="48" rx="10" fill="white"/>
<path d="M22.8388 18.9874C22.7063 18.9063 22.5541 18.8615 22.398 18.8574C22.2418 18.8534 22.0874 18.8904 21.9508 18.9646C21.8142 19.0388 21.7004 19.1474 21.6211 19.2792C21.5418 19.4111 21.5 19.5613 21.5 19.7143V28.5429C21.5 28.6978 21.5428 28.8498 21.624 28.9828C21.7051 29.1157 21.8215 29.2247 21.9608 29.298C22.1001 29.3714 22.2571 29.4063 22.4151 29.3992C22.5731 29.3921 22.7261 29.3432 22.858 29.2577L29.858 24.7166C29.9799 24.6374 30.0796 24.5297 30.148 24.4031C30.2164 24.2765 30.2513 24.1351 30.2495 23.9919C30.2478 23.8487 30.2094 23.7082 30.138 23.5832C30.0665 23.4583 29.9643 23.3528 29.8405 23.2766L22.8388 18.9874ZM15.375 12C14.2147 12 13.1019 12.4515 12.2814 13.2553C11.4609 14.059 11 15.1491 11 16.2857V31.7143C11 32.8509 11.4609 33.941 12.2814 34.7447C13.1019 35.5485 14.2147 36 15.375 36H34.625C35.7853 36 36.8981 35.5485 37.7186 34.7447C38.5391 33.941 39 32.8509 39 31.7143V16.2857C39 15.1491 38.5391 14.059 37.7186 13.2553C36.8981 12.4515 35.7853 12 34.625 12H15.375ZM12.75 16.2857C12.75 15.6037 13.0266 14.9497 13.5188 14.4674C14.0111 13.9852 14.6788 13.7143 15.375 13.7143H34.625C35.3212 13.7143 35.9889 13.9852 36.4812 14.4674C36.9734 14.9497 37.25 15.6037 37.25 16.2857V31.7143C37.25 32.3963 36.9734 33.0503 36.4812 33.5326C35.9889 34.0148 35.3212 34.2857 34.625 34.2857H15.375C14.6788 34.2857 14.0111 34.0148 13.5188 33.5326C13.0266 33.0503 12.75 32.3963 12.75 31.7143V16.2857Z" fill="black"/>
</svg>
