<svg width="19" height="18" viewBox="0 0 19 18" fill="none" xmlns="http://www.w3.org/2000/svg">
<path d="M9.75 16.5C13.8921 16.5 17.25 13.1421 17.25 9C17.25 4.85786 13.8921 1.5 9.75 1.5C5.60786 1.5 2.25 4.85786 2.25 9C2.25 13.1421 5.60786 16.5 9.75 16.5Z" stroke="#484C52" stroke-width="1.5" stroke-linecap="round" stroke-linejoin="round"/>
<path d="M6.74995 2.25H7.49995C6.03745 6.63 6.03745 11.37 7.49995 15.75H6.74995" stroke="#484C52" stroke-width="1.5" stroke-linecap="round" stroke-linejoin="round"/>
<path d="M12 2.25C13.4625 6.63 13.4625 11.37 12 15.75" stroke="#484C52" stroke-width="1.5" stroke-linecap="round" stroke-linejoin="round"/>
<path d="M3 12V11.25C7.38 12.7125 12.12 12.7125 16.5 11.25V12" stroke="#484C52" stroke-width="1.5" stroke-linecap="round" stroke-linejoin="round"/>
<path d="M3 6.75001C7.38 5.28751 12.12 5.28751 16.5 6.75001" stroke="#484C52" stroke-width="1.5" stroke-linecap="round" stroke-linejoin="round"/>
</svg>
