<svg width="73" height="71" viewBox="0 0 73 71" fill="none" xmlns="http://www.w3.org/2000/svg">
<path d="M4.02626 70.9835C3.62005 70.9835 3.17581 70.9591 2.69354 70.9104C2.21278 70.8619 1.74379 70.8025 1.28929 70.7275C0.834791 70.6525 0.446382 70.5958 0.125877 70.5446L0.271644 68.7789C0.603013 68.8216 0.988404 68.8673 1.42782 68.9161C1.86723 68.9649 2.30272 69.0048 2.73428 69.0359C3.16826 69.0688 3.5455 69.0853 3.86601 69.0853C4.47623 69.0853 4.92017 68.9633 5.19782 68.7195C5.47547 68.4757 5.614 68.0956 5.61339 67.5793C5.62525 67.343 5.56659 67.1085 5.44499 66.9063C5.33273 66.739 5.13264 66.6036 4.84291 66.5012C4.45028 66.3716 4.04871 66.2713 3.64147 66.2013C2.78498 66.0385 2.09086 65.8386 1.5591 65.6015C1.02734 65.3643 0.641945 65.0291 0.402924 64.5956C0.161489 64.164 0.0407715 63.5849 0.0407715 62.8583C0.0407715 62.0152 0.195894 61.3532 0.506138 60.8723C0.822522 60.3869 1.29225 60.024 1.83886 59.8427C2.49652 59.6249 3.18582 59.5208 3.87778 59.5345C4.23088 59.5345 4.63468 59.5534 5.08918 59.5912C5.54368 59.629 5.99335 59.675 6.4382 59.7293C6.88183 59.7829 7.25908 59.8439 7.56992 59.9122L7.47305 61.6952C7.15254 61.6519 6.78073 61.6114 6.35762 61.5736C5.9345 61.5358 5.51712 61.5008 5.10547 61.4684C4.69383 61.4361 4.34345 61.42 4.05433 61.42C3.4441 61.42 2.99443 61.5172 2.70531 61.7117C2.41619 61.9061 2.27193 62.2198 2.27254 62.6526C2.27254 62.9763 2.33591 63.225 2.46448 63.3978C2.59304 63.5706 2.80943 63.7114 3.11454 63.8193C3.52784 63.9572 3.94863 64.0711 4.37483 64.1604C4.92173 64.2779 5.46063 64.4306 5.98822 64.6176C6.37808 64.747 6.74332 64.9424 7.06834 65.1955C7.34384 65.427 7.55193 65.7298 7.67042 66.0715C7.8107 66.5053 7.87594 66.9603 7.86327 67.4165C7.86327 68.2815 7.71056 68.9761 7.40514 69.5004C7.10689 70.0188 6.64254 70.4191 6.08872 70.6351C5.51652 70.8674 4.82903 70.9835 4.02626 70.9835Z" fill="white"/>
<path d="M9.27563 70.8052V59.3434H11.4078V65.7304L12.3548 65.6984L14.0244 62.6663H16.2561L14.2172 66.493L16.3684 70.8052H14.124L12.3901 67.5793L11.4078 67.6278V70.8052H9.27563Z" fill="white"/>
<path d="M20.6246 70.9836C19.7144 70.9836 18.984 70.8312 18.4336 70.5264C17.8805 70.2215 17.4556 69.7245 17.2376 69.1274C16.9913 68.4946 16.8682 67.6759 16.8682 66.6713C16.8682 65.696 16.9967 64.9035 17.2539 64.2939C17.4879 63.7102 17.9185 63.2286 18.4698 62.9343C19.0263 62.6374 19.7434 62.4886 20.621 62.488C21.5095 62.488 22.2292 62.6368 22.7803 62.9343C23.3312 63.2313 23.7627 63.7126 24.0008 64.2958C24.2621 64.9054 24.3931 65.6978 24.3937 66.6732C24.3937 67.6784 24.2706 68.4971 24.0243 69.1292C23.8071 69.7277 23.3821 70.2261 22.8283 70.5319C22.2766 70.8324 21.542 70.983 20.6246 70.9836ZM20.6246 69.2005C21.0743 69.2005 21.4114 69.1167 21.6359 68.9491C21.8604 68.7814 22.0131 68.5111 22.094 68.138C22.1835 67.6558 22.2239 67.1655 22.2144 66.675C22.227 66.1976 22.1783 65.7206 22.0696 65.2559C21.9736 64.9047 21.8131 64.6536 21.5879 64.5024C21.3628 64.3512 21.0417 64.2744 20.6246 64.272C20.2178 64.272 19.8994 64.3476 19.6694 64.4988C19.4394 64.6499 19.2765 64.9011 19.1805 65.2522C19.0714 65.7169 19.0227 66.194 19.0356 66.6713C19.0257 67.1619 19.0661 67.6522 19.1561 68.1344C19.2363 68.5074 19.3872 68.7778 19.6088 68.9454C19.8303 69.113 20.1689 69.1981 20.6246 69.2005Z" fill="white"/>
<path d="M29.3253 70.9836C28.4157 70.9836 27.6854 70.8312 27.1343 70.5264C26.5812 70.2215 26.1563 69.7245 25.9383 69.1274C25.692 68.4946 25.5689 67.6759 25.5689 66.6713C25.5689 65.696 25.6975 64.9035 25.9546 64.2939C26.1886 63.7085 26.6208 63.226 27.1742 62.9324C27.7313 62.6356 28.4483 62.4868 29.3253 62.4862C30.2138 62.4862 30.9336 62.6349 31.4847 62.9324C32.0353 63.2296 32.4665 63.7109 32.7042 64.2939C32.9668 64.9035 33.0981 65.696 33.0981 66.6713C33.0981 67.6766 32.9749 68.4952 32.7287 69.1274C32.5114 69.7258 32.0864 70.2243 31.5327 70.53C30.9816 70.8318 30.2458 70.983 29.3253 70.9836ZM29.3253 69.2005C29.7744 69.2005 30.1115 69.1167 30.3366 68.9491C30.5618 68.7814 30.7142 68.5111 30.7939 68.138C30.8838 67.6558 30.9242 67.1656 30.9143 66.675C30.927 66.1977 30.8787 65.7207 30.7703 65.2559C30.6731 64.9047 30.5126 64.6536 30.2887 64.5024C30.0647 64.3512 29.7436 64.2744 29.3253 64.272C28.9191 64.272 28.6007 64.3476 28.3702 64.4988C28.1396 64.6499 27.9763 64.9011 27.8803 65.2522C27.772 65.717 27.7236 66.194 27.7364 66.6713C27.7265 67.1619 27.7668 67.6522 27.8568 68.1344C27.9365 68.5074 28.0889 68.7778 28.314 68.9454C28.5392 69.113 28.8763 69.1981 29.3253 69.2005Z" fill="white"/>
<path d="M34.6227 70.8052V59.3434H36.7585V70.8052H34.6227Z" fill="white"/>
<path d="M40.6906 70.9836C39.8558 70.9836 39.2272 70.7702 38.8047 70.3435C38.3822 69.9168 38.1709 69.2709 38.1709 68.4059C38.1709 67.8006 38.278 67.3276 38.4923 66.9868C38.7184 66.6367 39.055 66.3741 39.4475 66.2416C39.9472 66.0703 40.4692 65.9748 40.9966 65.9581L42.9549 65.7752V65.2888C42.9549 64.8993 42.8587 64.6249 42.6661 64.4658C42.4736 64.3067 42.1899 64.2284 41.8151 64.2308C41.5133 64.2308 41.168 64.2418 40.7793 64.2638C40.3906 64.2857 40.0055 64.3125 39.624 64.3442C39.2438 64.3771 38.9145 64.4098 38.6363 64.4421L38.5729 62.9178C38.8511 62.8532 39.1855 62.7855 39.576 62.7148C39.9666 62.6441 40.3758 62.5874 40.8037 62.5447C41.2317 62.5014 41.6276 62.4798 41.9916 62.4798C42.6761 62.4798 43.2495 62.5664 43.7118 62.7395C44.1473 62.8919 44.5165 63.193 44.7557 63.5908C44.9911 63.9852 45.1088 64.5173 45.1088 65.1873V68.9006C45.1184 68.9739 45.1453 69.0438 45.1872 69.1044C45.2291 69.165 45.2848 69.2146 45.3497 69.249C45.4993 69.3333 45.6623 69.3908 45.8313 69.4191L45.7824 70.9104C45.5259 70.9214 45.2745 70.9269 45.0283 70.9269C44.8187 70.9297 44.6093 70.9135 44.4026 70.8784C44.1814 70.8531 43.9666 70.7871 43.7689 70.6836C43.6135 70.6015 43.4702 70.4978 43.3433 70.3755C43.1722 70.4514 42.9423 70.5373 42.6534 70.6352C42.3461 70.737 42.0325 70.8183 41.7146 70.8784C41.3773 70.9461 41.0344 70.9813 40.6906 70.9836ZM41.2039 69.3788C41.4194 69.3775 41.6343 69.3557 41.8458 69.3139C42.0596 69.2733 42.2711 69.2217 42.4796 69.1594C42.6411 69.1135 42.7993 69.0567 42.9531 68.9893V67.1249L41.3153 67.2712C40.9622 67.3029 40.7081 67.408 40.553 67.5866C40.3981 67.7695 40.3203 68.0164 40.3203 68.341C40.3203 68.6656 40.3927 68.9189 40.5367 69.1027C40.6806 69.2865 40.9042 69.3788 41.2039 69.3788Z" fill="white"/>
<path d="M46.935 70.8052V68.4059H49.1622V70.8052H46.935Z" fill="white"/>
<path d="M50.868 70.8053V62.6673H53.0029V63.1839C53.2024 63.0611 53.4116 62.9553 53.6285 62.8675C53.8824 62.7624 54.1424 62.6729 54.4071 62.5996C54.6659 62.5263 54.9333 62.4882 55.202 62.4862C55.9505 62.4862 56.5311 62.6188 56.944 62.884C57.3568 63.1491 57.6484 63.5813 57.8186 64.1806C57.9894 64.7804 58.0751 65.5829 58.0757 66.5881V70.8034H55.9245V66.7033C55.9327 66.2502 55.9003 65.7973 55.8277 65.3501C55.7634 65.009 55.6402 64.7639 55.4592 64.6121C55.2781 64.4604 55.0065 64.3854 54.6561 64.3854C54.4541 64.386 54.2526 64.4049 54.054 64.4421C53.8524 64.4778 53.6539 64.5292 53.4601 64.5957C53.3026 64.6478 53.1497 64.7129 53.0029 64.7905V70.8053H50.868Z" fill="white"/>
<path d="M63.0037 70.9836C62.1158 70.9836 61.412 70.8312 60.8924 70.5264C60.3683 70.2174 59.9722 69.7278 59.7769 69.1475C59.5524 68.5318 59.4401 67.7592 59.4401 66.8295C59.4401 65.8243 59.5817 65.0029 59.8647 64.3653C60.1152 63.7677 60.5541 63.2704 61.1133 62.9507C61.6565 62.6423 62.3307 62.488 63.1359 62.488C64.3238 62.488 65.2198 62.7907 65.824 63.396C66.4282 64.0013 66.73 64.9578 66.7294 66.2654L66.6361 67.4659H61.5904C61.6013 68.0713 61.7244 68.5251 61.9598 68.8275C62.1952 69.1298 62.602 69.2822 63.1803 69.2846C63.5116 69.2846 63.8738 69.2767 64.2667 69.2609C64.6597 69.245 65.052 69.2261 65.4437 69.2042C65.8339 69.1822 66.168 69.1612 66.4469 69.1393L66.4949 70.6471C66.2269 70.6897 65.8898 70.7382 65.4835 70.7925C65.0773 70.8467 64.6572 70.8927 64.2233 70.9305C63.7947 70.9659 63.3882 70.9836 63.0037 70.9836ZM61.5904 66.087H64.5926C64.5926 65.3555 64.4777 64.8423 64.2477 64.5472C64.0177 64.2522 63.6459 64.1062 63.1323 64.1092C62.6289 64.1092 62.2462 64.2616 61.9842 64.5664C61.7223 64.8712 61.591 65.3781 61.5904 66.087Z" fill="white"/>
<path d="M70.9339 71C70.3448 71 69.8686 70.9134 69.5052 70.7403C69.3219 70.6513 69.1584 70.5257 69.0246 70.371C68.8908 70.2164 68.7894 70.0359 68.7266 69.8406C68.5709 69.4138 68.493 68.8168 68.493 68.0493V64.464H67.546V62.6663H68.493V60.5102H70.6288V62.6663H72.6831V64.464H70.6288V67.4814C70.6229 67.8122 70.6416 68.1429 70.6849 68.4708C70.7223 68.7085 70.8053 68.8759 70.9339 68.9728C71.0625 69.0697 71.2604 69.1185 71.5278 69.1191C71.6021 69.1191 71.7143 69.1136 71.8646 69.1026L72.3173 69.0706C72.4676 69.0597 72.5908 69.0487 72.6867 69.0377L72.751 70.7751C72.4939 70.8183 72.1863 70.8668 71.8284 70.9204C71.5325 70.9684 71.2336 70.995 70.9339 71Z" fill="white"/>
<path d="M72.7022 28.163L52.6932 57.2403C44.5683 49.7964 28.9279 52.2112 26.6309 52.6163C39.2936 45.3698 51.5162 52.1198 51.5162 52.1198L66.455 29.9917C64.7348 26.7914 57.3107 25.1455 57.3107 25.1455L57.5823 22.951C64.101 22.6767 72.7022 28.163 72.7022 28.163Z" fill="white"/>
<path d="M57.9897 10.3782L52.0595 45.2619C52.0595 45.2619 35.5815 43.6161 26.6309 52.6163C26.4453 52.7215 26.2606 52.8303 26.075 52.9428C26.075 52.9428 31.8695 41.9702 48.8001 41.2387L53.2365 14.4472C53.2365 14.4472 41.557 12.4356 32.0958 17.6019C32.0958 17.6019 44.1374 8.18372 57.9897 10.3782Z" fill="white"/>
<path d="M49.796 17.8304L49.4338 21.2137C49.4338 21.2137 39.7462 20.5736 32.6843 24.5054C32.7839 24.414 39.1061 18.3791 49.796 17.8304Z" fill="white"/>
<path d="M48.4379 25.5113L48.0757 28.8945C48.0757 28.8945 38.3881 28.2544 31.3262 32.1863C31.4258 32.0948 37.748 26.0599 48.4379 25.5113Z" fill="white"/>
<path d="M46.9893 33.2836L46.6271 36.6668C46.6271 36.6668 36.9395 36.0267 29.8776 39.9586C29.9772 39.8671 36.2994 33.8322 46.9893 33.2836Z" fill="white"/>
<path d="M43.4583 0.457214C27.9763 12.9843 27.8857 32.1863 27.8857 32.1863C19.2846 22.5853 12.5848 21.2137 12.5848 21.2137C24.6264 31.3634 26.075 53.0342 26.075 53.0342C14.4861 22.4024 0 16.1846 0 16.1846C15.6631 13.35 24.4453 23.9569 24.4453 23.9569C29.8776 3.74899 43.4583 0.457214 43.4583 0.457214Z" fill="white"/>
<path d="M19.2393 11.064C22.2645 11.064 24.7169 8.58727 24.7169 5.53202C24.7169 2.47677 22.2645 0 19.2393 0C16.2142 0 13.7618 2.47677 13.7618 5.53202C13.7618 8.58727 16.2142 11.064 19.2393 11.064Z" fill="white"/>
</svg>
