<svg width="17" height="12" viewBox="0 0 17 12" fill="none" xmlns="http://www.w3.org/2000/svg">
<path fill-rule="evenodd" clip-rule="evenodd" d="M16.207 0.792787C16.3945 0.980314 16.4998 1.23462 16.4998 1.49979C16.4998 1.76495 16.3945 2.01926 16.207 2.20679L6.70698 11.7068C6.51945 11.8943 6.26514 11.9996 5.99998 11.9996C5.73482 11.9996 5.48051 11.8943 5.29298 11.7068L0.79298 7.20679C0.610822 7.01818 0.510027 6.76558 0.512306 6.50339C0.514584 6.24119 0.619753 5.99038 0.805162 5.80497C0.99057 5.61956 1.24138 5.51439 1.50358 5.51211C1.76578 5.50983 2.01838 5.61063 2.20698 5.79279L5.99998 9.58579L14.793 0.792787C14.9805 0.605316 15.2348 0.5 15.5 0.5C15.7651 0.5 16.0195 0.605316 16.207 0.792787Z" fill="white"/>
</svg>
